  0
SECTION
  2
HEADER
  9
$ACADVER
  1
AC1015
  9
$ACADMAINTVER
 70
     6
  9
$DWGCODEPAGE
  3
UNDEFINED
  9
$INSBASE
 10
0.0
 20
0.0
 30
0.0
  9
$EXTMIN
 10
1.000000000000000E+20
 20
1.000000000000000E+20
 30
1.000000000000000E+20
  9
$EXTMAX
 10
-1.000000000000000E+20
 20
-1.000000000000000E+20
 30
-1.000000000000000E+20
  9
$LIMMIN
 10
0.0
 20
0.0
  9
$LIMMAX
 10
12.0
 20
9.0
  9
$ORTHOMODE
 70
     0
  9
$REGENMODE
 70
     1
  9
$FILLMODE
 70
     1
  9
$QTEXTMODE
 70
     0
  9
$MIRRTEXT
 70
     1
  9
$LTSCALE
 40
1.0
  9
$ATTMODE
 70
     1
  9
$TEXTSIZE
 40
0.2
  9
$TRACEWID
 40
0.05
  9
$TEXTSTYLE
  7
Standard
  9
$CLAYER
  8
0
  9
$CELTYPE
  6
ByLayer
  9
$CECOLOR
 62
   256
  9
$CELTSCALE
 40
1.0
  9
$DISPSILH
 70
     0
  9
$DIMSCALE
 40
1.0
  9
$DIMASZ
 40
0.18
  9
$DIMEXO
 40
0.0625
  9
$DIMDLI
 40
0.38
  9
$DIMRND
 40
0.0
  9
$DIMDLE
 40
0.0
  9
$DIMEXE
 40
0.18
  9
$DIMTP
 40
0.0
  9
$DIMTM
 40
0.0
  9
$DIMTXT
 40
0.18
  9
$DIMCEN
 40
0.09
  9
$DIMTSZ
 40
0.0
  9
$DIMTOL
 70
     0
  9
$DIMLIM
 70
     0
  9
$DIMTIH
 70
     1
  9
$DIMTOH
 70
     1
  9
$DIMSE1
 70
     0
  9
$DIMSE2
 70
     0
  9
$DIMTAD
 70
     0
  9
$DIMZIN
 70
     0
  9
$DIMBLK
  1

  9
$DIMASO
 70
     1
  9
$DIMSHO
 70
     1
  9
$DIMPOST
  1

  9
$DIMAPOST
  1

  9
$DIMALT
 70
     0
  9
$DIMALTD
 70
     2
  9
$DIMALTF
 40
25.4
  9
$DIMLFAC
 40
1.0
  9
$DIMTOFL
 70
     0
  9
$DIMTVP
 40
0.0
  9
$DIMTIX
 70
     0
  9
$DIMSOXD
 70
     0
  9
$DIMSAH
 70
     0
  9
$DIMBLK1
  1

  9
$DIMBLK2
  1

  9
$DIMSTYLE
  2
Standard
  9
$DIMCLRD
 70
     0
  9
$DIMCLRE
 70
     0
  9
$DIMCLRT
 70
     0
  9
$DIMTFAC
 40
1.0
  9
$DIMGAP
 40
0.09
  9
$DIMJUST
 70
     0
  9
$DIMSD1
 70
     0
  9
$DIMSD2
 70
     0
  9
$DIMTOLJ
 70
     1
  9
$DIMTZIN
 70
     0
  9
$DIMALTZ
 70
     0
  9
$DIMALTTZ
 70
     0
  9
$DIMUPT
 70
     0
  9
$DIMDEC
 70
     4
  9
$DIMTDEC
 70
     4
  9
$DIMALTU
 70
     2
  9
$DIMALTTD
 70
     2
  9
$DIMTXSTY
  7
Standard
  9
$DIMAUNIT
 70
     0
  9
$DIMADEC
 70
     0
  9
$DIMALTRND
 40
0.0
  9
$DIMAZIN
 70
     0
  9
$DIMDSEP
 70
    46
  9
$DIMATFIT
 70
     3
  9
$DIMFRAC
 70
     0
  9
$DIMLDRBLK
  1

  9
$DIMLUNIT
 70
     2
  9
$DIMLWD
 70
    -2
  9
$DIMLWE
 70
    -2
  9
$DIMTMOVE
 70
     0
  9
$LUNITS
 70
     2
  9
$LUPREC
 70
     4
  9
$SKETCHINC
 40
0.1
  9
$FILLETRAD
 40
0.5
  9
$AUNITS
 70
     0
  9
$AUPREC
 70
     0
  9
$MENU
  1
.
  9
$ELEVATION
 40
0.0
  9
$PELEVATION
 40
0.0
  9
$THICKNESS
 40
0.0
  9
$LIMCHECK
 70
     0
  9
$CHAMFERA
 40
0.5
  9
$CHAMFERB
 40
0.5
  9
$CHAMFERC
 40
1.0
  9
$CHAMFERD
 40
0.0
  9
$SKPOLY
 70
     0
  9
$TDCREATE
 40
2458317.629965278
  9
$TDUCREATE
 40
2458317.588298611
  9
$TDUPDATE
 40
2458317.629965278
  9
$TDUUPDATE
 40
2458317.588298611
  9
$TDINDWG
 40
0.0000000116
  9
$TDUSRTIMER
 40
0.0000000116
  9
$USRTIMER
 70
     1
  9
$ANGBASE
 50
0.0
  9
$ANGDIR
 70
     0
  9
$PDMODE
 70
     0
  9
$PDSIZE
 40
0.0
  9
$PLINEWID
 40
0.0
  9
$SPLFRAME
 70
     0
  9
$SPLINETYPE
 70
     6
  9
$SPLINESEGS
 70
     8
  9
$HANDSEED
  5
17F
  9
$SURFTAB1
 70
     6
  9
$SURFTAB2
 70
     6
  9
$SURFTYPE
 70
     6
  9
$SURFU
 70
     6
  9
$SURFV
 70
     6
  9
$UCSBASE
  2

  9
$UCSNAME
  2

  9
$UCSORG
 10
0.0
 20
0.0
 30
0.0
  9
$UCSXDIR
 10
1.0
 20
0.0
 30
0.0
  9
$UCSYDIR
 10
0.0
 20
1.0
 30
0.0
  9
$UCSORTHOREF
  2

  9
$UCSORTHOVIEW
 70
     0
  9
$UCSORGTOP
 10
0.0
 20
0.0
 30
0.0
  9
$UCSORGBOTTOM
 10
0.0
 20
0.0
 30
0.0
  9
$UCSORGLEFT
 10
0.0
 20
0.0
 30
0.0
  9
$UCSORGRIGHT
 10
0.0
 20
0.0
 30
0.0
  9
$UCSORGFRONT
 10
0.0
 20
0.0
 30
0.0
  9
$UCSORGBACK
 10
0.0
 20
0.0
 30
0.0
  9
$PUCSBASE
  2

  9
$PUCSNAME
  2

  9
$PUCSORG
 10
0.0
 20
0.0
 30
0.0
  9
$PUCSXDIR
 10
1.0
 20
0.0
 30
0.0
  9
$PUCSYDIR
 10
0.0
 20
1.0
 30
0.0
  9
$PUCSORTHOREF
  2

  9
$PUCSORTHOVIEW
 70
     0
  9
$PUCSORGTOP
 10
0.0
 20
0.0
 30
0.0
  9
$PUCSORGBOTTOM
 10
0.0
 20
0.0
 30
0.0
  9
$PUCSORGLEFT
 10
0.0
 20
0.0
 30
0.0
  9
$PUCSORGRIGHT
 10
0.0
 20
0.0
 30
0.0
  9
$PUCSORGFRONT
 10
0.0
 20
0.0
 30
0.0
  9
$PUCSORGBACK
 10
0.0
 20
0.0
 30
0.0
  9
$USERI1
 70
     0
  9
$USERI2
 70
     0
  9
$USERI3
 70
     0
  9
$USERI4
 70
     0
  9
$USERI5
 70
     0
  9
$USERR1
 40
0.0
  9
$USERR2
 40
0.0
  9
$USERR3
 40
0.0
  9
$USERR4
 40
0.0
  9
$USERR5
 40
0.0
  9
$WORLDVIEW
 70
     1
  9
$SHADEDGE
 70
     3
  9
$SHADEDIF
 70
    70
  9
$TILEMODE
 70
     1
  9
$MAXACTVP
 70
    64
  9
$PINSBASE
 10
0.0
 20
0.0
 30
0.0
  9
$PLIMCHECK
 70
     0
  9
$PEXTMIN
 10
1.000000000000000E+20
 20
1.000000000000000E+20
 30
1.000000000000000E+20
  9
$PEXTMAX
 10
-1.000000000000000E+20
 20
-1.000000000000000E+20
 30
-1.000000000000000E+20
  9
$PLIMMIN
 10
0.0
 20
0.0
  9
$PLIMMAX
 10
12.0
 20
9.0
  9
$UNITMODE
 70
     0
  9
$VISRETAIN
 70
     1
  9
$PLINEGEN
 70
     0
  9
$PSLTSCALE
 70
     1
  9
$TREEDEPTH
 70
  3020
  9
$CMLSTYLE
  2
Standard
  9
$CMLJUST
 70
     0
  9
$CMLSCALE
 40
1.0
  9
$PROXYGRAPHICS
 70
     1
  9
$MEASUREMENT
 70
     0
  9
$CELWEIGHT
370
    -1
  9
$ENDCAPS
280
     0
  9
$JOINSTYLE
280
     0
  9
$LWDISPLAY
290
     1
  9
$INSUNITS
 70
     1
  9
$HYPERLINKBASE
  1

  9
$STYLESHEET
  1

  9
$XEDIT
290
     1
  9
$CEPSNTYPE
380
     0
  9
$PSTYLEMODE
290
     1
  9
$FINGERPRINTGUID
  2
{DAE99B67-08DB-ABFE-EB4E-599706D0564D}
  9
$VERSIONGUID
  2
{FAEB1C32-E019-11D5-929B-00C0DF256EC4}
  9
$EXTNAMES
290
     1
  9
$PSVPSCALE
 40
0.0
  9
$OLESTARTUP
290
     0
  0
ENDSEC
  0
SECTION
  2
CLASSES
  0
CLASS
  1
ACDBDICTIONARYWDFLT
  2
AcDbDictionaryWithDefault
  3
ObjectDBX Classes
 90
        0
280
     0
281
     0
  0
CLASS
  1
VISUALSTYLE
  2
AcDbVisualStyle
  3
ObjectDBX Classes
 90
     4095
280
     0
281
     0
  0
CLASS
  1
MATERIAL
  2
AcDbMaterial
  3
ObjectDBX Classes
 90
     1153
280
     0
281
     0
  0
CLASS
  1
SUN
  2
AcDbSun
  3
SCENEOE
 90
     1024
280
     0
281
     0
  0
CLASS
  1
DICTIONARYVAR
  2
AcDbDictionaryVar
  3
ObjectDBX Classes
 90
        0
280
     0
281
     0
  0
CLASS
  1
ACDBPLACEHOLDER
  2
AcDbPlaceHolder
  3
ObjectDBX Classes
 90
        0
280
     0
281
     0
  0
CLASS
  1
LAYOUT
  2
AcDbLayout
  3
ObjectDBX Classes
 90
        0
280
     0
281
     0
  0
ENDSEC
  0
SECTION
  2
TABLES
  0
TABLE
  2
VPORT
  5
8
330
0
100
AcDbSymbolTable
 70
     1
  0
VPORT
  5
29
330
8
100
AcDbSymbolTableRecord
100
AcDbViewportTableRecord
  2
*Active
 70
     0
 10
0.0
 20
0.0
 11
1.0
 21
1.0
 12
0.0
 22
0.0
 13
0.0
 23
0.0
 14
0.5
 24
0.5
 15
0.5
 25
0.5
 16
0.0
 26
0.0
 36
1.0
 17
5.432777776419581
 27
-12.38249999690437
 37
0.0
 40
59.54888887400166
 41
1.274881516587678
 42
50.0
 43
0.0
 44
0.0
 50
0.0
 51
0.0
 71
     0
 72
   100
 73
     1
 74
     3
 75
     0
 76
     0
 77
     0
 78
     0
281
     0
 65
     1
110
0.0
120
0.0
130
0.0
111
1.0
121
0.0
131
0.0
112
0.0
122
1.0
132
0.0
 79
     0
146
0.0
  0
ENDTAB
  0
TABLE
  2
LTYPE
  5
5
330
0
100
AcDbSymbolTable
 70
     1
  0
LTYPE
  5
14
330
5
100
AcDbSymbolTableRecord
100
AcDbLinetypeTableRecord
  2
ByBlock
 70
     0
  3

 72
    65
 73
     0
 40
0.0
  0
LTYPE
  5
15
330
5
100
AcDbSymbolTableRecord
100
AcDbLinetypeTableRecord
  2
ByLayer
 70
     0
  3

 72
    65
 73
     0
 40
0.0
  0
LTYPE
  5
16
330
5
100
AcDbSymbolTableRecord
100
AcDbLinetypeTableRecord
  2
Continuous
 70
     0
  3
Solid line
 72
    65
 73
     0
 40
0.0
  0
ENDTAB
  0
TABLE
  2
LAYER
  5
2
330
0
100
AcDbSymbolTable
 70
     2
  0
LAYER
  5
10
330
2
100
AcDbSymbolTableRecord
100
AcDbLayerTableRecord
  2
0
 70
     0
 62
     7
  6
Continuous
370
    -3
390
F
  0
LAYER
  5
40
330
2
100
AcDbSymbolTableRecord
100
AcDbLayerTableRecord
  2
Layer 1
 70
     0
 62
     7
  6
Continuous
370
    -3
390
F
  0
ENDTAB
  0
TABLE
  2
STYLE
  5
3
330
0
100
AcDbSymbolTable
 70
     1
  0
STYLE
  5
11
330
3
100
AcDbSymbolTableRecord
100
AcDbTextStyleTableRecord
  2
Standard
 70
     0
 40
0.0
 41
1.0
 50
0.0
 71
     0
 42
0.2
  3
txt
  4

  0
ENDTAB
  0
TABLE
  2
VIEW
  5
6
330
0
100
AcDbSymbolTable
 70
     0
  0
ENDTAB
  0
TABLE
  2
UCS
  5
7
330
0
100
AcDbSymbolTable
 70
     0
  0
ENDTAB
  0
TABLE
  2
APPID
  5
9
330
0
100
AcDbSymbolTable
 70
     1
  0
APPID
  5
12
330
9
100
AcDbSymbolTableRecord
100
AcDbRegAppTableRecord
  2
ACAD
 70
     0
  0
ENDTAB
  0
TABLE
  2
DIMSTYLE
  5
A
330
0
100
AcDbSymbolTable
 70
     1
100
AcDbDimStyleTable
  0
DIMSTYLE
105
27
330
A
100
AcDbSymbolTableRecord
100
AcDbDimStyleTableRecord
  2
Standard
 70
     0
178
     0
340
11
  0
ENDTAB
  0
TABLE
  2
BLOCK_RECORD
  5
1
330
0
100
AcDbSymbolTable
 70
     1
  0
BLOCK_RECORD
  5
1F
330
1
100
AcDbSymbolTableRecord
100
AcDbBlockTableRecord
  2
*Model_Space
340
22
  0
BLOCK_RECORD
  5
1B
330
1
100
AcDbSymbolTableRecord
100
AcDbBlockTableRecord
  2
*Paper_Space
340
1E
  0
BLOCK_RECORD
  5
23
330
1
100
AcDbSymbolTableRecord
100
AcDbBlockTableRecord
  2
*Paper_Space0
340
26
  0
ENDTAB
  0
ENDSEC
  0
SECTION
  2
BLOCKS
  0
BLOCK
  5
20
330
1F
100
AcDbEntity
  8
0
100
AcDbBlockBegin
  2
*Model_Space
 70
     0
 10
0.0
 20
0.0
 30
0.0
  3
*Model_Space
  1

  0
ENDBLK
  5
21
330
1F
100
AcDbEntity
  8
0
100
AcDbBlockEnd
  0
BLOCK
  5
1C
330
1B
100
AcDbEntity
 67
     1
  8
0
100
AcDbBlockBegin
  2
*Paper_Space
 70
     0
 10
0.0
 20
0.0
 30
0.0
  3
*Paper_Space
  1

  0
ENDBLK
  5
1D
330
1B
100
AcDbEntity
 67
     1
  8
0
100
AcDbBlockEnd
  0
BLOCK
  5
24
330
23
100
AcDbEntity
  8
0
100
AcDbBlockBegin
  2
*Paper_Space0
 70
     0
 10
0.0
 20
0.0
 30
0.0
  3
*Paper_Space0
  1

  0
ENDBLK
  5
25
330
23
100
AcDbEntity
  8
0
100
AcDbBlockEnd
  0
ENDSEC
  0
SECTION
  2
ENTITIES
  0
POLYLINE
  5
41
330
1F
100
AcDbEntity
  8
Layer 1
 62
   142
370
    35
100
AcDb2dPolyline
 66
     1
 10
0.0
 20
0.0
 30
0.0
  0
VERTEX
  5
42
330
41
100
AcDbEntity
  8
Layer 1
 62
   142
370
    35
100
AcDbVertex
100
AcDb2dVertex
 10
-3.593144451398715
 20
-20.07133464558867
 30
0.0
  0
VERTEX
  5
43
330
41
100
AcDbEntity
  8
Layer 1
 62
   142
370
    35
100
AcDbVertex
100
AcDb2dVertex
 10
-3.593144492066263
 20
-16.79165262744857
 30
0.0
  0
VERTEX
  5
44
330
41
100
AcDbEntity
  8
Layer 1
 62
   142
370
    35
100
AcDbVertex
100
AcDb2dVertex
 10
-3.993144490747586
 20
-16.79165262748502
 30
0.0
  0
VERTEX
  5
45
330
41
100
AcDbEntity
  8
Layer 1
 62
   142
370
    35
100
AcDbVertex
100
AcDb2dVertex
 10
-3.993144490868482
 20
-15.4466526894494
 30
0.0
  0
VERTEX
  5
46
330
41
100
AcDbEntity
  8
Layer 1
 62
   142
370
    35
100
AcDbVertex
100
AcDb2dVertex
 10
-4.303144510705175
 20
-15.44665268947764
 30
0.0
  0
VERTEX
  5
47
330
41
100
AcDbEntity
  8
Layer 1
 62
   142
370
    35
100
AcDbVertex
100
AcDb2dVertex
 10
-4.303144510694073
 20
-15.57165271093363
 30
0.0
  0
VERTEX
  5
48
330
41
100
AcDbEntity
  8
Layer 1
 62
   142
370
    35
100
AcDbVertex
100
AcDb2dVertex
 10
-4.553144553606262
 20
-15.57165271095584
 30
0.0
  0
VERTEX
  5
49
330
41
100
AcDbEntity
  8
Layer 1
 62
   142
370
    35
100
AcDbVertex
100
AcDb2dVertex
 10
-4.553144553617427
 20
-15.44665268949984
 30
0.0
  0
VERTEX
  5
4A
330
41
100
AcDbEntity
  8
Layer 1
 62
   142
370
    35
100
AcDbVertex
100
AcDb2dVertex
 10
-4.803144488870677
 20
-15.44665268952217
 30
0.0
  0
VERTEX
  5
4B
330
41
100
AcDbEntity
  8
Layer 1
 62
   142
370
    35
100
AcDbVertex
100
AcDb2dVertex
 10
-4.80314448889827
 20
-15.13665248128161
 30
0.0
  0
VERTEX
  5
4C
330
41
100
AcDbEntity
  8
Layer 1
 62
   142
370
    35
100
AcDbVertex
100
AcDb2dVertex
 10
-4.553144553645405
 20
-15.13665248125941
 30
0.0
  0
VERTEX
  5
4D
330
41
100
AcDbEntity
  8
Layer 1
 62
   142
370
    35
100
AcDbVertex
100
AcDb2dVertex
 10
-4.553144553656506
 20
-15.01165245980341
 30
0.0
  0
VERTEX
  5
4E
330
41
100
AcDbEntity
  8
Layer 1
 62
   142
370
    35
100
AcDbVertex
100
AcDb2dVertex
 10
-4.303144510744254
 20
-15.01165245978057
 30
0.0
  0
VERTEX
  5
4F
330
41
100
AcDbEntity
  8
Layer 1
 62
   142
370
    35
100
AcDbVertex
100
AcDb2dVertex
 10
-4.303144510733152
 20
-15.13665248123721
 30
0.0
  0
VERTEX
  5
50
330
41
100
AcDbEntity
  8
Layer 1
 62
   142
370
    35
100
AcDbVertex
100
AcDb2dVertex
 10
-3.993144490896075
 20
-15.13665248120923
 30
0.0
  0
VERTEX
  5
51
330
41
100
AcDbEntity
  8
Layer 1
 62
   142
370
    35
100
AcDbVertex
100
AcDb2dVertex
 10
-3.993144491016971
 20
-13.791652543174
 30
0.0
  0
VERTEX
  5
52
330
41
100
AcDbEntity
  8
Layer 1
 62
   142
370
    35
100
AcDbVertex
100
AcDb2dVertex
 10
-3.593144492335648
 20
-13.79165254313819
 30
0.0
  0
VERTEX
  5
53
330
41
100
AcDbEntity
  8
Layer 1
 62
   142
370
    35
100
AcDbVertex
100
AcDb2dVertex
 10
-3.593144492515581
 20
-11.79165219984024
 30
0.0
  0
VERTEX
  5
54
330
41
100
AcDbEntity
  8
Layer 1
 62
   142
370
    35
100
AcDbVertex
100
AcDb2dVertex
 10
-3.993144491196518
 20
-11.79165219987637
 30
0.0
  0
VERTEX
  5
55
330
41
100
AcDbEntity
  8
Layer 1
 62
   142
370
    35
100
AcDbVertex
100
AcDb2dVertex
 10
-3.993144491317479
 20
-10.44665269247804
 30
0.0
  0
VERTEX
  5
56
330
41
100
AcDbEntity
  8
Layer 1
 62
   142
370
    35
100
AcDbVertex
100
AcDb2dVertex
 10
-4.303144511154171
 20
-10.4466526925057
 30
0.0
  0
VERTEX
  5
57
330
41
100
AcDbEntity
  8
Layer 1
 62
   142
370
    35
100
AcDbVertex
100
AcDb2dVertex
 10
-4.30314451114307
 20
-10.57165271396196
 30
0.0
  0
VERTEX
  5
58
330
41
100
AcDbEntity
  8
Layer 1
 62
   142
370
    35
100
AcDbVertex
100
AcDb2dVertex
 10
-4.553144554055322
 20
-10.57165271398416
 30
0.0
  0
VERTEX
  5
59
330
41
100
AcDbEntity
  8
Layer 1
 62
   142
370
    35
100
AcDbVertex
100
AcDb2dVertex
 10
-4.553144554066423
 20
-10.44665269252791
 30
0.0
  0
VERTEX
  5
5A
330
41
100
AcDbEntity
  8
Layer 1
 62
   142
370
    35
100
AcDbVertex
100
AcDb2dVertex
 10
-4.803144489319673
 20
-10.44665269255088
 30
0.0
  0
VERTEX
  5
5B
330
41
100
AcDbEntity
  8
Layer 1
 62
   142
370
    35
100
AcDbVertex
100
AcDb2dVertex
 10
-4.80314448934733
 20
-10.13665291494646
 30
0.0
  0
VERTEX
  5
5C
330
41
100
AcDbEntity
  8
Layer 1
 62
   142
370
    35
100
AcDbVertex
100
AcDb2dVertex
 10
-4.553144554094338
 20
-10.13665291492426
 30
0.0
  0
VERTEX
  5
5D
330
41
100
AcDbEntity
  8
Layer 1
 62
   142
370
    35
100
AcDbVertex
100
AcDb2dVertex
 10
-4.553144554105503
 20
-10.011652893468
 30
0.0
  0
VERTEX
  5
5E
330
41
100
AcDbEntity
  8
Layer 1
 62
   142
370
    35
100
AcDbVertex
100
AcDb2dVertex
 10
-4.303144511193251
 20
-10.01165289344542
 30
0.0
  0
VERTEX
  5
5F
330
41
100
AcDbEntity
  8
Layer 1
 62
   142
370
    35
100
AcDbVertex
100
AcDb2dVertex
 10
-4.303144511182086
 20
-10.13665291490205
 30
0.0
  0
VERTEX
  5
60
330
41
100
AcDbEntity
  8
Layer 1
 62
   142
370
    35
100
AcDbVertex
100
AcDb2dVertex
 10
-3.993144491345392
 20
-10.13665291487376
 30
0.0
  0
VERTEX
  5
61
330
41
100
AcDbEntity
  8
Layer 1
 62
   142
370
    35
100
AcDbVertex
100
AcDb2dVertex
 10
-3.993144491466096
 20
-8.791652546202515
 30
0.0
  0
VERTEX
  5
62
330
41
100
AcDbEntity
  8
Layer 1
 62
   142
370
    35
100
AcDbVertex
100
AcDb2dVertex
 10
-3.593144492784774
 20
-8.791652546166452
 30
0.0
  0
VERTEX
  5
63
330
41
100
AcDbEntity
  8
Layer 1
 62
   142
370
    35
100
AcDbVertex
100
AcDb2dVertex
 10
-3.593144493118521
 20
-5.447456670486866
 30
0.0
  0
VERTEX
  5
64
330
41
100
AcDbEntity
  8
Layer 1
 62
   142
370
    35
100
AcDbVertex
100
AcDb2dVertex
 10
-3.689531338959576
 20
-5.421629939982815
 30
0.0
  0
VERTEX
  5
65
330
41
100
AcDbEntity
  8
Layer 1
 62
   142
370
    35
100
AcDbVertex
100
AcDb2dVertex
 10
-6.529819262473726
 20
-7.061470984611915
 30
0.0
  0
VERTEX
  5
66
330
41
100
AcDbEntity
  8
Layer 1
 62
   142
370
    35
100
AcDbVertex
100
AcDb2dVertex
 10
-6.329819263060168
 20
-7.40788114494133
 30
0.0
  0
VERTEX
  5
67
330
41
100
AcDbEntity
  8
Layer 1
 62
   142
370
    35
100
AcDbVertex
100
AcDb2dVertex
 10
-7.494623377346457
 20
-8.08038111420311
 30
0.0
  0
VERTEX
  5
68
330
41
100
AcDbEntity
  8
Layer 1
 62
   142
370
    35
100
AcDbVertex
100
AcDb2dVertex
 10
-7.339623367371513
 20
-8.348849006522903
 30
0.0
  0
VERTEX
  5
69
330
41
100
AcDbEntity
  8
Layer 1
 62
   142
370
    35
100
AcDbVertex
100
AcDb2dVertex
 10
-7.231370173330332
 20
-8.286348995772444
 30
0.0
  0
VERTEX
  5
6A
330
41
100
AcDbEntity
  8
Layer 1
 62
   142
370
    35
100
AcDbVertex
100
AcDb2dVertex
 10
-7.106370151828645
 20
-8.50285538385532
 30
0.0
  0
VERTEX
  5
6B
330
41
100
AcDbEntity
  8
Layer 1
 62
   142
370
    35
100
AcDbVertex
100
AcDb2dVertex
 10
-7.214623345870083
 20
-8.5653553946061
 30
0.0
  0
VERTEX
  5
6C
330
41
100
AcDbEntity
  8
Layer 1
 62
   142
370
    35
100
AcDbVertex
100
AcDb2dVertex
 10
-7.089623378198411
 20
-8.781861689453377
 30
0.0
  0
VERTEX
  5
6D
330
41
100
AcDbEntity
  8
Layer 1
 62
   142
370
    35
100
AcDbVertex
100
AcDb2dVertex
 10
-7.358091433680707
 20
-8.936861793630062
 30
0.0
  0
VERTEX
  5
6E
330
41
100
AcDbEntity
  8
Layer 1
 62
   142
370
    35
100
AcDbVertex
100
AcDb2dVertex
 10
-7.483091401352443
 20
-8.720355498782462
 30
0.0
  0
VERTEX
  5
6F
330
41
100
AcDbEntity
  8
Layer 1
 62
   142
370
    35
100
AcDbVertex
100
AcDb2dVertex
 10
-7.591344595393817
 20
-8.782855509533306
 30
0.0
  0
VERTEX
  5
70
330
41
100
AcDbEntity
  8
Layer 1
 62
   142
370
    35
100
AcDbVertex
100
AcDb2dVertex
 10
-7.716344616895568
 20
-8.566349121450495
 30
0.0
  0
VERTEX
  5
71
330
41
100
AcDbEntity
  8
Layer 1
 62
   142
370
    35
100
AcDbVertex
100
AcDb2dVertex
 10
-7.608091422853874
 20
-8.503849110699266
 30
0.0
  0
VERTEX
  5
72
330
41
100
AcDbEntity
  8
Layer 1
 62
   142
370
    35
100
AcDbVertex
100
AcDb2dVertex
 10
-7.763091432828497
 20
-8.235381218379858
 30
0.0
  0
VERTEX
  5
73
330
41
100
AcDbEntity
  8
Layer 1
 62
   142
370
    35
100
AcDbVertex
100
AcDb2dVertex
 10
-8.92789554711453
 20
-8.907881187640871
 30
0.0
  0
VERTEX
  5
74
330
41
100
AcDbEntity
  8
Layer 1
 62
   142
370
    35
100
AcDbVertex
100
AcDb2dVertex
 10
-9.127895546527704
 20
-8.561471027311585
 30
0.0
  0
VERTEX
  5
75
330
41
100
AcDbEntity
  8
Layer 1
 62
   142
370
    35
100
AcDbVertex
100
AcDb2dVertex
 10
-10.8599466511918
 20
-9.561471199323154
 30
0.0
  0
VERTEX
  5
76
330
41
100
AcDbEntity
  8
Layer 1
 62
   142
370
    35
100
AcDbVertex
100
AcDb2dVertex
 10
-10.65994665177863
 20
-9.907881359652889
 30
0.0
  0
VERTEX
  5
77
330
41
100
AcDbEntity
  8
Layer 1
 62
   142
370
    35
100
AcDbVertex
100
AcDb2dVertex
 10
-11.82475039312252
 20
-10.58038111359615
 30
0.0
  0
VERTEX
  5
78
330
41
100
AcDbEntity
  8
Layer 1
 62
   142
370
    35
100
AcDbVertex
100
AcDb2dVertex
 10
-11.66975038314771
 20
-10.84884900591633
 30
0.0
  0
VERTEX
  5
79
330
41
100
AcDbEntity
  8
Layer 1
 62
   142
370
    35
100
AcDbVertex
100
AcDb2dVertex
 10
-11.56149718910627
 20
-10.78634899516548
 30
0.0
  0
VERTEX
  5
7A
330
41
100
AcDbEntity
  8
Layer 1
 62
   142
370
    35
100
AcDbVertex
100
AcDb2dVertex
 10
-11.43649716760452
 20
-11.0028553832483
 30
0.0
  0
VERTEX
  5
7B
330
41
100
AcDbEntity
  8
Layer 1
 62
   142
370
    35
100
AcDbVertex
100
AcDb2dVertex
 10
-11.54475036164628
 20
-11.06535539399914
 30
0.0
  0
VERTEX
  5
7C
330
41
100
AcDbEntity
  8
Layer 1
 62
   142
370
    35
100
AcDbVertex
100
AcDb2dVertex
 10
-11.4197503939739
 20
-11.2818616888468
 30
0.0
  0
VERTEX
  5
7D
330
41
100
AcDbEntity
  8
Layer 1
 62
   142
370
    35
100
AcDbVertex
100
AcDb2dVertex
 10
-11.68821807651438
 20
-11.43686157770478
 30
0.0
  0
VERTEX
  5
7E
330
41
100
AcDbEntity
  8
Layer 1
 62
   142
370
    35
100
AcDbVertex
100
AcDb2dVertex
 10
-11.81321804418612
 20
-11.2203552828575
 30
0.0
  0
VERTEX
  5
7F
330
41
100
AcDbEntity
  8
Layer 1
 62
   142
370
    35
100
AcDbVertex
100
AcDb2dVertex
 10
-11.92147123822756
 20
-11.28285529360815
 30
0.0
  0
VERTEX
  5
80
330
41
100
AcDbEntity
  8
Layer 1
 62
   142
370
    35
100
AcDbVertex
100
AcDb2dVertex
 10
-12.04647125972937
 20
-11.06634890552521
 30
0.0
  0
VERTEX
  5
81
330
41
100
AcDbEntity
  8
Layer 1
 62
   142
370
    35
100
AcDbVertex
100
AcDb2dVertex
 10
-11.93821806568755
 20
-11.0038488947743
 30
0.0
  0
VERTEX
  5
82
330
41
100
AcDbEntity
  8
Layer 1
 62
   142
370
    35
100
AcDbVertex
100
AcDb2dVertex
 10
-12.09321807566224
 20
-10.73538100245451
 30
0.0
  0
VERTEX
  5
83
330
41
100
AcDbEntity
  8
Layer 1
 62
   142
370
    35
100
AcDbVertex
100
AcDb2dVertex
 10
-13.25802256289047
 20
-11.40788118703423
 30
0.0
  0
VERTEX
  5
84
330
41
100
AcDbEntity
  8
Layer 1
 62
   142
370
    35
100
AcDbVertex
100
AcDb2dVertex
 10
-13.45802256230326
 20
-11.06147102670456
 30
0.0
  0
VERTEX
  5
85
330
41
100
AcDbEntity
  8
Layer 1
 62
   142
370
    35
100
AcDbVertex
100
AcDb2dVertex
 10
-16.35418114550638
 20
-12.73356896518018
 30
0.0
  0
VERTEX
  5
86
330
41
100
AcDbEntity
  8
Layer 1
 62
   142
370
    35
100
AcDbVertex
100
AcDb2dVertex
 10
-16.35207270345084
 20
-12.81382731557157
 30
0.0
  0
VERTEX
  5
87
330
41
100
AcDbEntity
  8
Layer 1
 62
   142
370
    35
100
AcDbVertex
100
AcDb2dVertex
 10
-13.51178473897473
 20
-14.45366828925237
 30
0.0
  0
VERTEX
  5
88
330
41
100
AcDbEntity
  8
Layer 1
 62
   142
370
    35
100
AcDbVertex
100
AcDb2dVertex
 10
-13.31178473968636
 20
-14.10725812885045
 30
0.0
  0
VERTEX
  5
89
330
41
100
AcDbEntity
  8
Layer 1
 62
   142
370
    35
100
AcDbVertex
100
AcDb2dVertex
 10
-12.14698062515873
 20
-14.7797580976941
 30
0.0
  0
VERTEX
  5
8A
330
41
100
AcDbEntity
  8
Layer 1
 62
   142
370
    35
100
AcDbVertex
100
AcDb2dVertex
 10
-11.99198061528056
 20
-14.51129020531803
 30
0.0
  0
VERTEX
  5
8B
330
41
100
AcDbEntity
  8
Layer 1
 62
   142
370
    35
100
AcDbVertex
100
AcDb2dVertex
 10
-12.10023380934413
 20
-14.44879019460639
 30
0.0
  0
VERTEX
  5
8C
330
41
100
AcDbEntity
  8
Layer 1
 62
   142
370
    35
100
AcDbVertex
100
AcDb2dVertex
 10
-11.97523378792041
 20
-14.2322838064786
 30
0.0
  0
VERTEX
  5
8D
330
41
100
AcDbEntity
  8
Layer 1
 62
   142
370
    35
100
AcDbVertex
100
AcDb2dVertex
 10
-11.86698059385664
 20
-14.29478381719036
 30
0.0
  0
VERTEX
  5
8E
330
41
100
AcDbEntity
  8
Layer 1
 62
   142
370
    35
100
AcDbVertex
100
AcDb2dVertex
 10
-11.7419806262623
 20
-14.07827752229797
 30
0.0
  0
VERTEX
  5
8F
330
41
100
AcDbEntity
  8
Layer 1
 62
   142
370
    35
100
AcDbVertex
100
AcDb2dVertex
 10
-11.47351257072449
 20
-14.23327762637808
 30
0.0
  0
VERTEX
  5
90
330
41
100
AcDbEntity
  8
Layer 1
 62
   142
370
    35
100
AcDbVertex
100
AcDb2dVertex
 10
-11.59851253831871
 20
-14.4497839212706
 30
0.0
  0
VERTEX
  5
91
330
41
100
AcDbEntity
  8
Layer 1
 62
   142
370
    35
100
AcDbVertex
100
AcDb2dVertex
 10
-11.49025934425494
 20
-14.51228393198224
 30
0.0
  0
VERTEX
  5
92
330
41
100
AcDbEntity
  8
Layer 1
 62
   142
370
    35
100
AcDbVertex
100
AcDb2dVertex
 10
-11.61525936567815
 20
-14.72879032011041
 30
0.0
  0
VERTEX
  5
93
330
41
100
AcDbEntity
  8
Layer 1
 62
   142
370
    35
100
AcDbVertex
100
AcDb2dVertex
 10
-11.72351255974237
 20
-14.66629030939852
 30
0.0
  0
VERTEX
  5
94
330
41
100
AcDbEntity
  8
Layer 1
 62
   142
370
    35
100
AcDbVertex
100
AcDb2dVertex
 10
-11.87851256962061
 20
-14.93475820177382
 30
0.0
  0
VERTEX
  5
95
330
41
100
AcDbEntity
  8
Layer 1
 62
   142
370
    35
100
AcDbVertex
100
AcDb2dVertex
 10
-10.7137084550933
 20
-15.60725817061721
 30
0.0
  0
VERTEX
  5
96
330
41
100
AcDbEntity
  8
Layer 1
 62
   142
370
    35
100
AcDbVertex
100
AcDb2dVertex
 10
-10.91370845438192
 20
-15.95366833101876
 30
0.0
  0
VERTEX
  5
97
330
41
100
AcDbEntity
  8
Layer 1
 62
   142
370
    35
100
AcDbVertex
100
AcDb2dVertex
 10
-9.181657349358918
 20
-16.95366850240839
 30
0.0
  0
VERTEX
  5
98
330
41
100
AcDbEntity
  8
Layer 1
 62
   142
370
    35
100
AcDbVertex
100
AcDb2dVertex
 10
-8.98165735007017
 20
-16.60725834200711
 30
0.0
  0
VERTEX
  5
99
330
41
100
AcDbEntity
  8
Layer 1
 62
   142
370
    35
100
AcDbVertex
100
AcDb2dVertex
 10
-7.8168536084848
 20
-17.27975809553185
 30
0.0
  0
VERTEX
  5
9A
330
41
100
AcDbEntity
  8
Layer 1
 62
   142
370
    35
100
AcDbVertex
100
AcDb2dVertex
 10
-7.661853598606625
 20
-17.01129020315617
 30
0.0
  0
VERTEX
  5
9B
330
41
100
AcDbEntity
  8
Layer 1
 62
   142
370
    35
100
AcDbVertex
100
AcDb2dVertex
 10
-7.770106792670457
 20
-16.94879019244441
 30
0.0
  0
VERTEX
  5
9C
330
41
100
AcDbEntity
  8
Layer 1
 62
   142
370
    35
100
AcDbVertex
100
AcDb2dVertex
 10
-7.64510677124648
 20
-16.73228380431674
 30
0.0
  0
VERTEX
  5
9D
330
41
100
AcDbEntity
  8
Layer 1
 62
   142
370
    35
100
AcDbVertex
100
AcDb2dVertex
 10
-7.536853577182711
 20
-16.7947838150285
 30
0.0
  0
VERTEX
  5
9E
330
41
100
AcDbEntity
  8
Layer 1
 62
   142
370
    35
100
AcDbVertex
100
AcDb2dVertex
 10
-7.411853609588813
 20
-16.5782775201356
 30
0.0
  0
VERTEX
  5
9F
330
41
100
AcDbEntity
  8
Layer 1
 62
   142
370
    35
100
AcDbVertex
100
AcDb2dVertex
 10
-7.143385926992823
 20
-16.73327740889757
 30
0.0
  0
VERTEX
  5
A0
330
41
100
AcDbEntity
  8
Layer 1
 62
   142
370
    35
100
AcDbVertex
100
AcDb2dVertex
 10
-7.268385894587043
 20
-16.94978370378983
 30
0.0
  0
VERTEX
  5
A1
330
41
100
AcDbEntity
  8
Layer 1
 62
   142
370
    35
100
AcDbVertex
100
AcDb2dVertex
 10
-7.160132700522889
 20
-17.01228371450198
 30
0.0
  0
VERTEX
  5
A2
330
41
100
AcDbEntity
  8
Layer 1
 62
   142
370
    35
100
AcDbVertex
100
AcDb2dVertex
 10
-7.285132721946737
 20
-17.22879010262978
 30
0.0
  0
VERTEX
  5
A3
330
41
100
AcDbEntity
  8
Layer 1
 62
   142
370
    35
100
AcDbVertex
100
AcDb2dVertex
 10
-7.393385916010955
 20
-17.16629009191789
 30
0.0
  0
VERTEX
  5
A4
330
41
100
AcDbEntity
  8
Layer 1
 62
   142
370
    35
100
AcDbVertex
100
AcDb2dVertex
 10
-7.548385925888747
 20
-17.43475798429357
 30
0.0
  0
VERTEX
  5
A5
330
41
100
AcDbEntity
  8
Layer 1
 62
   142
370
    35
100
AcDbVertex
100
AcDb2dVertex
 10
-6.383581438419364
 20
-18.10725816845484
 30
0.0
  0
VERTEX
  5
A6
330
41
100
AcDbEntity
  8
Layer 1
 62
   142
370
    35
100
AcDbVertex
100
AcDb2dVertex
 10
-6.583581437708305
 20
-18.45366832885625
 30
0.0
  0
VERTEX
  5
A7
330
41
100
AcDbEntity
  8
Layer 1
 62
   142
370
    35
100
AcDbVertex
100
AcDb2dVertex
 10
-3.687422853871633
 20
-20.12576626623425
 30
0.0
  0
VERTEX
  5
A8
330
41
100
AcDbEntity
  8
Layer 1
 62
   142
370
    35
100
AcDbVertex
100
AcDb2dVertex
 10
-3.593144451398715
 20
-20.07133464558867
 30
0.0
  0
SEQEND
  5
A9
330
41
100
AcDbEntity
  8
Layer 1
 62
   142
370
    35
  0
POLYLINE
  5
AA
330
1F
100
AcDbEntity
  8
Layer 1
 62
   142
370
    35
100
AcDb2dPolyline
 66
     1
 10
0.0
 20
0.0
 30
0.0
  0
VERTEX
  5
AB
330
AA
100
AcDbEntity
  8
Layer 1
 62
   142
370
    35
100
AcDbVertex
100
AcDb2dVertex
 10
-2.864909023315387
 20
-19.68564042814986
 30
0.0
  0
VERTEX
  5
AC
330
AA
100
AcDbEntity
  8
Layer 1
 62
   142
370
    35
100
AcDbVertex
100
AcDb2dVertex
 10
-2.864909092423486
 20
-16.77034942720402
 30
0.0
  0
VERTEX
  5
AD
330
AA
100
AcDbEntity
  8
Layer 1
 62
   142
370
    35
100
AcDbVertex
100
AcDb2dVertex
 10
-3.264908472064483
 20
-16.77034942716809
 30
0.0
  0
VERTEX
  5
AE
330
AA
100
AcDbEntity
  8
Layer 1
 62
   142
370
    35
100
AcDbVertex
100
AcDb2dVertex
 10
-3.264908471946411
 20
-15.45534935647875
 30
0.0
  0
VERTEX
  5
AF
330
AA
100
AcDbEntity
  8
Layer 1
 62
   142
370
    35
100
AcDbVertex
100
AcDb2dVertex
 10
-2.894908959651111
 20
-15.45534935651186
 30
0.0
  0
VERTEX
  5
B0
330
AA
100
AcDbEntity
  8
Layer 1
 62
   142
370
    35
100
AcDbVertex
100
AcDb2dVertex
 10
-2.894908959617999
 20
-15.08534941358004
 30
0.0
  0
VERTEX
  5
B1
330
AA
100
AcDbEntity
  8
Layer 1
 62
   142
370
    35
100
AcDbVertex
100
AcDb2dVertex
 10
-3.264908471913299
 20
-15.08534941354693
 30
0.0
  0
VERTEX
  5
B2
330
AA
100
AcDbEntity
  8
Layer 1
 62
   142
370
    35
100
AcDbVertex
100
AcDb2dVertex
 10
-3.264908471795226
 20
-13.77034934285771
 30
0.0
  0
VERTEX
  5
B3
330
AA
100
AcDbEntity
  8
Layer 1
 62
   142
370
    35
100
AcDbVertex
100
AcDb2dVertex
 10
-2.864909092154229
 20
-13.77034934289365
 30
0.0
  0
VERTEX
  5
B4
330
AA
100
AcDbEntity
  8
Layer 1
 62
   142
370
    35
100
AcDbVertex
100
AcDb2dVertex
 10
-2.864909091974489
 20
-11.77034899959544
 30
0.0
  0
VERTEX
  5
B5
330
AA
100
AcDbEntity
  8
Layer 1
 62
   142
370
    35
100
AcDbVertex
100
AcDb2dVertex
 10
-3.26490847161555
 20
-11.77034899955944
 30
0.0
  0
VERTEX
  5
B6
330
AA
100
AcDbEntity
  8
Layer 1
 62
   142
370
    35
100
AcDbVertex
100
AcDb2dVertex
 10
-3.264908471497863
 20
-10.45534935950669
 30
0.0
  0
VERTEX
  5
B7
330
AA
100
AcDbEntity
  8
Layer 1
 62
   142
370
    35
100
AcDbVertex
100
AcDb2dVertex
 10
-2.894908959202178
 20
-10.45534935954018
 30
0.0
  0
VERTEX
  5
B8
330
AA
100
AcDbEntity
  8
Layer 1
 62
   142
370
    35
100
AcDbVertex
100
AcDb2dVertex
 10
-2.894908959169066
 20
-10.08534898597145
 30
0.0
  0
VERTEX
  5
B9
330
AA
100
AcDbEntity
  8
Layer 1
 62
   142
370
    35
100
AcDbVertex
100
AcDb2dVertex
 10
-3.264908471464366
 20
-10.08534898593827
 30
0.0
  0
VERTEX
  5
BA
330
AA
100
AcDbEntity
  8
Layer 1
 62
   142
370
    35
100
AcDbVertex
100
AcDb2dVertex
 10
-3.264908471346293
 20
-8.770349345885588
 30
0.0
  0
VERTEX
  5
BB
330
AA
100
AcDbEntity
  8
Layer 1
 62
   142
370
    35
100
AcDbVertex
100
AcDb2dVertex
 10
-2.864909091705361
 20
-8.770349345921652
 30
0.0
  0
VERTEX
  5
BC
330
AA
100
AcDbEntity
  8
Layer 1
 62
   142
370
    35
100
AcDbVertex
100
AcDb2dVertex
 10
-2.862529810024228
 20
-5.461762491777936
 30
0.0
  0
VERTEX
  5
BD
330
AA
100
AcDbEntity
  8
Layer 1
 62
   142
370
    35
100
AcDbVertex
100
AcDb2dVertex
 10
-2.420290143728995
 20
-5.461762527012604
 30
0.0
  0
VERTEX
  5
BE
330
AA
100
AcDbEntity
  8
Layer 1
 62
   142
370
    35
100
AcDbVertex
100
AcDb2dVertex
 10
-2.420290143729059
 20
-5.861762525693542
 30
0.0
  0
VERTEX
  5
BF
330
AA
100
AcDbEntity
  8
Layer 1
 62
   142
370
    35
100
AcDbVertex
100
AcDb2dVertex
 10
-1.015290040365909
 20
-5.861762525693606
 30
0.0
  0
VERTEX
  5
C0
330
AA
100
AcDbEntity
  8
Layer 1
 62
   142
370
    35
100
AcDbVertex
100
AcDb2dVertex
 10
-1.01043856859898
 20
-5.861762475760885
 30
0.0
  0
VERTEX
  5
C1
330
AA
100
AcDbEntity
  8
Layer 1
 62
   142
370
    35
100
AcDbVertex
100
AcDb2dVertex
 10
0.0845613265237409
 20
-5.861762475760758
 30
0.0
  0
VERTEX
  5
C2
330
AA
100
AcDbEntity
  8
Layer 1
 62
   142
370
    35
100
AcDbVertex
100
AcDb2dVertex
 10
0.0845613265237409
 20
-5.461762477079819
 30
0.0
  0
VERTEX
  5
C3
330
AA
100
AcDbEntity
  8
Layer 1
 62
   142
370
    35
100
AcDbVertex
100
AcDb2dVertex
 10
2.084561239185492
 20
-5.461762477079563
 30
0.0
  0
VERTEX
  5
C4
330
AA
100
AcDbEntity
  8
Layer 1
 62
   142
370
    35
100
AcDbVertex
100
AcDb2dVertex
 10
2.084561239185492
 20
-5.861762475760885
 30
0.0
  0
VERTEX
  5
C5
330
AA
100
AcDbEntity
  8
Layer 1
 62
   142
370
    35
100
AcDbVertex
100
AcDb2dVertex
 10
4.084561151846858
 20
-5.861762475761078
 30
0.0
  0
VERTEX
  5
C6
330
AA
100
AcDbEntity
  8
Layer 1
 62
   142
370
    35
100
AcDbVertex
100
AcDb2dVertex
 10
4.084561151846858
 20
-5.461762477079755
 30
0.0
  0
VERTEX
  5
C7
330
AA
100
AcDbEntity
  8
Layer 1
 62
   142
370
    35
100
AcDbVertex
100
AcDb2dVertex
 10
6.084561495144813
 20
-5.461762477079948
 30
0.0
  0
VERTEX
  5
C8
330
AA
100
AcDbEntity
  8
Layer 1
 62
   142
370
    35
100
AcDbVertex
100
AcDb2dVertex
 10
6.084561495144749
 20
-5.861762475760885
 30
0.0
  0
VERTEX
  5
C9
330
AA
100
AcDbEntity
  8
Layer 1
 62
   142
370
    35
100
AcDbVertex
100
AcDb2dVertex
 10
8.084561838442673
 20
-5.861762475761014
 30
0.0
  0
VERTEX
  5
CA
330
AA
100
AcDbEntity
  8
Layer 1
 62
   142
370
    35
100
AcDbVertex
100
AcDb2dVertex
 10
8.0845618384428
 20
-5.461762477079692
 30
0.0
  0
VERTEX
  5
CB
330
AA
100
AcDbEntity
  8
Layer 1
 62
   142
370
    35
100
AcDbVertex
100
AcDb2dVertex
 10
10.08456218174069
 20
-5.461762477079884
 30
0.0
  0
VERTEX
  5
CC
330
AA
100
AcDbEntity
  8
Layer 1
 62
   142
370
    35
100
AcDbVertex
100
AcDb2dVertex
 10
10.08456218174069
 20
-5.861762475760885
 30
0.0
  0
VERTEX
  5
CD
330
AA
100
AcDbEntity
  8
Layer 1
 62
   142
370
    35
100
AcDbVertex
100
AcDb2dVertex
 10
11.17956078495409
 20
-5.861762475761078
 30
0.0
  0
VERTEX
  5
CE
330
AA
100
AcDbEntity
  8
Layer 1
 62
   142
370
    35
100
AcDbVertex
100
AcDb2dVertex
 10
11.09972313439691
 20
-5.861762449999236
 30
0.0
  0
VERTEX
  5
CF
330
AA
100
AcDbEntity
  8
Layer 1
 62
   142
370
    35
100
AcDbVertex
100
AcDb2dVertex
 10
12.50472323776006
 20
-5.861762449998915
 30
0.0
  0
VERTEX
  5
D0
330
AA
100
AcDbEntity
  8
Layer 1
 62
   142
370
    35
100
AcDbVertex
100
AcDb2dVertex
 10
12.50472323776006
 20
-5.461762451317978
 30
0.0
  0
VERTEX
  5
D1
330
AA
100
AcDbEntity
  8
Layer 1
 62
   142
370
    35
100
AcDbVertex
100
AcDb2dVertex
 10
13.43146579315888
 20
-5.461762458987757
 30
0.0
  0
VERTEX
  5
D2
330
AA
100
AcDbEntity
  8
Layer 1
 62
   142
370
    35
100
AcDbVertex
100
AcDb2dVertex
 10
13.43146587176316
 20
-8.765133474615261
 30
0.0
  0
VERTEX
  5
D3
330
AA
100
AcDbEntity
  8
Layer 1
 62
   142
370
    35
100
AcDbVertex
100
AcDb2dVertex
 10
13.83146525140448
 20
-8.765133474615261
 30
0.0
  0
VERTEX
  5
D4
330
AA
100
AcDbEntity
  8
Layer 1
 62
   142
370
    35
100
AcDbVertex
100
AcDb2dVertex
 10
13.83146525140435
 20
-10.08013354530454
 30
0.0
  0
VERTEX
  5
D5
330
AA
100
AcDbEntity
  8
Layer 1
 62
   142
370
    35
100
AcDbVertex
100
AcDb2dVertex
 10
13.46146573910905
 20
-10.08013354530447
 30
0.0
  0
VERTEX
  5
D6
330
AA
100
AcDbEntity
  8
Layer 1
 62
   142
370
    35
100
AcDbVertex
100
AcDb2dVertex
 10
13.46146573910905
 20
-10.45013348823642
 30
0.0
  0
VERTEX
  5
D7
330
AA
100
AcDbEntity
  8
Layer 1
 62
   142
370
    35
100
AcDbVertex
100
AcDb2dVertex
 10
13.83146525134544
 20
-10.45013348823642
 30
0.0
  0
VERTEX
  5
D8
330
AA
100
AcDbEntity
  8
Layer 1
 62
   142
370
    35
100
AcDbVertex
100
AcDb2dVertex
 10
13.83146525140448
 20
-11.76513355892564
 30
0.0
  0
VERTEX
  5
D9
330
AA
100
AcDbEntity
  8
Layer 1
 62
   142
370
    35
100
AcDbVertex
100
AcDb2dVertex
 10
13.43146587176355
 20
-11.76513355892564
 30
0.0
  0
VERTEX
  5
DA
330
AA
100
AcDbEntity
  8
Layer 1
 62
   142
370
    35
100
AcDbVertex
100
AcDb2dVertex
 10
13.43146587176329
 20
-13.76513390222385
 30
0.0
  0
VERTEX
  5
DB
330
AA
100
AcDbEntity
  8
Layer 1
 62
   142
370
    35
100
AcDbVertex
100
AcDb2dVertex
 10
13.83146525134532
 20
-13.76513390222385
 30
0.0
  0
VERTEX
  5
DC
330
AA
100
AcDbEntity
  8
Layer 1
 62
   142
370
    35
100
AcDbVertex
100
AcDb2dVertex
 10
13.83146525140435
 20
-15.08013354227653
 30
0.0
  0
VERTEX
  5
DD
330
AA
100
AcDbEntity
  8
Layer 1
 62
   142
370
    35
100
AcDbVertex
100
AcDb2dVertex
 10
13.46146573910905
 20
-15.08013354227628
 30
0.0
  0
VERTEX
  5
DE
330
AA
100
AcDbEntity
  8
Layer 1
 62
   142
370
    35
100
AcDbVertex
100
AcDb2dVertex
 10
13.46146573910918
 20
-15.45013391584501
 30
0.0
  0
VERTEX
  5
DF
330
AA
100
AcDbEntity
  8
Layer 1
 62
   142
370
    35
100
AcDbVertex
100
AcDb2dVertex
 10
13.83146525134519
 20
-15.45013391584501
 30
0.0
  0
VERTEX
  5
E0
330
AA
100
AcDbEntity
  8
Layer 1
 62
   142
370
    35
100
AcDbVertex
100
AcDb2dVertex
 10
13.83146525140422
 20
-16.7651335558977
 30
0.0
  0
VERTEX
  5
E1
330
AA
100
AcDbEntity
  8
Layer 1
 62
   142
370
    35
100
AcDbVertex
100
AcDb2dVertex
 10
13.43146587176329
 20
-16.7651335558977
 30
0.0
  0
VERTEX
  5
E2
330
AA
100
AcDbEntity
  8
Layer 1
 62
   142
370
    35
100
AcDbVertex
100
AcDb2dVertex
 10
13.42908659032722
 20
-19.68564042779153
 30
0.0
  0
VERTEX
  5
E3
330
AA
100
AcDbEntity
  8
Layer 1
 62
   142
370
    35
100
AcDbVertex
100
AcDb2dVertex
 10
13.4314657937975
 20
-19.68564123113418
 30
0.0
  0
VERTEX
  5
E4
330
AA
100
AcDbEntity
  8
Layer 1
 62
   142
370
    35
100
AcDbVertex
100
AcDb2dVertex
 10
12.50472323839868
 20
-19.68564122346446
 30
0.0
  0
VERTEX
  5
E5
330
AA
100
AcDbEntity
  8
Layer 1
 62
   142
370
    35
100
AcDbVertex
100
AcDb2dVertex
 10
12.50472323839868
 20
-20.0856412221454
 30
0.0
  0
VERTEX
  5
E6
330
AA
100
AcDbEntity
  8
Layer 1
 62
   142
370
    35
100
AcDbVertex
100
AcDb2dVertex
 10
11.09972313503553
 20
-20.08564122214565
 30
0.0
  0
VERTEX
  5
E7
330
AA
100
AcDbEntity
  8
Layer 1
 62
   142
370
    35
100
AcDbVertex
100
AcDb2dVertex
 10
11.17956078559271
 20
-20.08564124790756
 30
0.0
  0
VERTEX
  5
E8
330
AA
100
AcDbEntity
  8
Layer 1
 62
   142
370
    35
100
AcDbVertex
100
AcDb2dVertex
 10
10.08456218237931
 20
-20.0856412479073
 30
0.0
  0
VERTEX
  5
E9
330
AA
100
AcDbEntity
  8
Layer 1
 62
   142
370
    35
100
AcDbVertex
100
AcDb2dVertex
 10
10.08456218237931
 20
-19.68564124922637
 30
0.0
  0
VERTEX
  5
EA
330
AA
100
AcDbEntity
  8
Layer 1
 62
   142
370
    35
100
AcDbVertex
100
AcDb2dVertex
 10
8.084561839081418
 20
-19.68564124922611
 30
0.0
  0
VERTEX
  5
EB
330
AA
100
AcDbEntity
  8
Layer 1
 62
   142
370
    35
100
AcDbVertex
100
AcDb2dVertex
 10
8.08456183908129
 20
-20.08564124790743
 30
0.0
  0
VERTEX
  5
EC
330
AA
100
AcDbEntity
  8
Layer 1
 62
   142
370
    35
100
AcDbVertex
100
AcDb2dVertex
 10
6.084561495783367
 20
-20.0856412479073
 30
0.0
  0
VERTEX
  5
ED
330
AA
100
AcDbEntity
  8
Layer 1
 62
   142
370
    35
100
AcDbVertex
100
AcDb2dVertex
 10
6.084561495783367
 20
-19.68564124922637
 30
0.0
  0
VERTEX
  5
EE
330
AA
100
AcDbEntity
  8
Layer 1
 62
   142
370
    35
100
AcDbVertex
100
AcDb2dVertex
 10
4.084561152485477
 20
-19.68564124922624
 30
0.0
  0
VERTEX
  5
EF
330
AA
100
AcDbEntity
  8
Layer 1
 62
   142
370
    35
100
AcDbVertex
100
AcDb2dVertex
 10
4.084561152485477
 20
-20.08564124790756
 30
0.0
  0
VERTEX
  5
F0
330
AA
100
AcDbEntity
  8
Layer 1
 62
   142
370
    35
100
AcDbVertex
100
AcDb2dVertex
 10
2.084561239824111
 20
-20.0856412479073
 30
0.0
  0
VERTEX
  5
F1
330
AA
100
AcDbEntity
  8
Layer 1
 62
   142
370
    35
100
AcDbVertex
100
AcDb2dVertex
 10
2.084561239824111
 20
-19.68564124922598
 30
0.0
  0
VERTEX
  5
F2
330
AA
100
AcDbEntity
  8
Layer 1
 62
   142
370
    35
100
AcDbVertex
100
AcDb2dVertex
 10
0.0845613271623598
 20
-19.68564124922624
 30
0.0
  0
VERTEX
  5
F3
330
AA
100
AcDbEntity
  8
Layer 1
 62
   142
370
    35
100
AcDbVertex
100
AcDb2dVertex
 10
0.0845613271623598
 20
-20.08564124790718
 30
0.0
  0
VERTEX
  5
F4
330
AA
100
AcDbEntity
  8
Layer 1
 62
   142
370
    35
100
AcDbVertex
100
AcDb2dVertex
 10
-1.010438567960361
 20
-20.0856412479073
 30
0.0
  0
VERTEX
  5
F5
330
AA
100
AcDbEntity
  8
Layer 1
 62
   142
370
    35
100
AcDbVertex
100
AcDb2dVertex
 10
-1.01529003972729
 20
-20.08564129784009
 30
0.0
  0
VERTEX
  5
F6
330
AA
100
AcDbEntity
  8
Layer 1
 62
   142
370
    35
100
AcDbVertex
100
AcDb2dVertex
 10
-2.42029014309044
 20
-20.08564129783996
 30
0.0
  0
VERTEX
  5
F7
330
AA
100
AcDbEntity
  8
Layer 1
 62
   142
370
    35
100
AcDbVertex
100
AcDb2dVertex
 10
-2.42029014309044
 20
-19.68564129915902
 30
0.0
  0
VERTEX
  5
F8
330
AA
100
AcDbEntity
  8
Layer 1
 62
   142
370
    35
100
AcDbVertex
100
AcDb2dVertex
 10
-2.862529809385673
 20
-19.68564126392448
 30
0.0
  0
SEQEND
  5
F9
330
AA
100
AcDbEntity
  8
Layer 1
 62
   142
370
    35
  0
POLYLINE
  5
FA
330
1F
100
AcDbEntity
  8
Layer 1
 62
   142
370
    35
100
AcDb2dPolyline
 66
     1
 10
0.0
 20
0.0
 30
0.0
  0
VERTEX
  5
FB
330
FA
100
AcDbEntity
  8
Layer 1
 62
   142
370
    35
100
AcDbVertex
100
AcDb2dVertex
 10
-2.864909023315387
 20
-3.573803036615753
 30
0.0
  0
VERTEX
  5
FC
330
FA
100
AcDbEntity
  8
Layer 1
 62
   142
370
    35
100
AcDbVertex
100
AcDb2dVertex
 10
-2.864909092423486
 20
-0.6585120356699833
 30
0.0
  0
VERTEX
  5
FD
330
FA
100
AcDbEntity
  8
Layer 1
 62
   142
370
    35
100
AcDbVertex
100
AcDb2dVertex
 10
-3.264908472064483
 20
-0.658512035633984
 30
0.0
  0
VERTEX
  5
FE
330
FA
100
AcDbEntity
  8
Layer 1
 62
   142
370
    35
100
AcDbVertex
100
AcDb2dVertex
 10
-3.264908471946411
 20
0.6564880350552916
 30
0.0
  0
VERTEX
  5
FF
330
FA
100
AcDbEntity
  8
Layer 1
 62
   142
370
    35
100
AcDbVertex
100
AcDb2dVertex
 10
-2.894908959651111
 20
0.65648803502218
 30
0.0
  0
VERTEX
  5
100
330
FA
100
AcDbEntity
  8
Layer 1
 62
   142
370
    35
100
AcDbVertex
100
AcDb2dVertex
 10
-2.894908959617999
 20
1.026487977954004
 30
0.0
  0
VERTEX
  5
101
330
FA
100
AcDbEntity
  8
Layer 1
 62
   142
370
    35
100
AcDbVertex
100
AcDb2dVertex
 10
-3.264908471913299
 20
1.02648797798718
 30
0.0
  0
VERTEX
  5
102
330
FA
100
AcDbEntity
  8
Layer 1
 62
   142
370
    35
100
AcDbVertex
100
AcDb2dVertex
 10
-3.264908471795226
 20
2.341488048676392
 30
0.0
  0
VERTEX
  5
103
330
FA
100
AcDbEntity
  8
Layer 1
 62
   142
370
    35
100
AcDbVertex
100
AcDb2dVertex
 10
-2.864909092154229
 20
2.341488048640392
 30
0.0
  0
VERTEX
  5
104
330
FA
100
AcDbEntity
  8
Layer 1
 62
   142
370
    35
100
AcDbVertex
100
AcDb2dVertex
 10
-2.864909091974489
 20
4.341488391938668
 30
0.0
  0
VERTEX
  5
105
330
FA
100
AcDbEntity
  8
Layer 1
 62
   142
370
    35
100
AcDbVertex
100
AcDb2dVertex
 10
-3.26490847161555
 20
4.341488391974668
 30
0.0
  0
VERTEX
  5
106
330
FA
100
AcDbEntity
  8
Layer 1
 62
   142
370
    35
100
AcDbVertex
100
AcDb2dVertex
 10
-3.264908471497863
 20
5.656488032027418
 30
0.0
  0
VERTEX
  5
107
330
FA
100
AcDbEntity
  8
Layer 1
 62
   142
370
    35
100
AcDbVertex
100
AcDb2dVertex
 10
-2.894908959202178
 20
5.656488031993922
 30
0.0
  0
VERTEX
  5
108
330
FA
100
AcDbEntity
  8
Layer 1
 62
   142
370
    35
100
AcDbVertex
100
AcDb2dVertex
 10
-2.894908959169066
 20
6.026488405562656
 30
0.0
  0
VERTEX
  5
109
330
FA
100
AcDbEntity
  8
Layer 1
 62
   142
370
    35
100
AcDbVertex
100
AcDb2dVertex
 10
-3.264908471464366
 20
6.026488405595832
 30
0.0
  0
VERTEX
  5
10A
330
FA
100
AcDbEntity
  8
Layer 1
 62
   142
370
    35
100
AcDbVertex
100
AcDb2dVertex
 10
-3.264908471346293
 20
7.341488045648518
 30
0.0
  0
VERTEX
  5
10B
330
FA
100
AcDbEntity
  8
Layer 1
 62
   142
370
    35
100
AcDbVertex
100
AcDb2dVertex
 10
-2.864909091705361
 20
7.341488045612454
 30
0.0
  0
VERTEX
  5
10C
330
FA
100
AcDbEntity
  8
Layer 1
 62
   142
370
    35
100
AcDbVertex
100
AcDb2dVertex
 10
-2.862529810024228
 20
10.65007489975617
 30
0.0
  0
VERTEX
  5
10D
330
FA
100
AcDbEntity
  8
Layer 1
 62
   142
370
    35
100
AcDbVertex
100
AcDb2dVertex
 10
-2.420290143728995
 20
10.6500748645215
 30
0.0
  0
VERTEX
  5
10E
330
FA
100
AcDbEntity
  8
Layer 1
 62
   142
370
    35
100
AcDbVertex
100
AcDb2dVertex
 10
-2.420290143729059
 20
10.25007486584056
 30
0.0
  0
VERTEX
  5
10F
330
FA
100
AcDbEntity
  8
Layer 1
 62
   142
370
    35
100
AcDbVertex
100
AcDb2dVertex
 10
-1.015290040365909
 20
10.2500748658405
 30
0.0
  0
VERTEX
  5
110
330
FA
100
AcDbEntity
  8
Layer 1
 62
   142
370
    35
100
AcDbVertex
100
AcDb2dVertex
 10
-1.01043856859898
 20
10.25007491577322
 30
0.0
  0
VERTEX
  5
111
330
FA
100
AcDbEntity
  8
Layer 1
 62
   142
370
    35
100
AcDbVertex
100
AcDb2dVertex
 10
0.0845613265237409
 20
10.25007491577335
 30
0.0
  0
VERTEX
  5
112
330
FA
100
AcDbEntity
  8
Layer 1
 62
   142
370
    35
100
AcDbVertex
100
AcDb2dVertex
 10
0.0845613265237409
 20
10.65007491445428
 30
0.0
  0
VERTEX
  5
113
330
FA
100
AcDbEntity
  8
Layer 1
 62
   142
370
    35
100
AcDbVertex
100
AcDb2dVertex
 10
2.084561239185492
 20
10.65007491445454
 30
0.0
  0
VERTEX
  5
114
330
FA
100
AcDbEntity
  8
Layer 1
 62
   142
370
    35
100
AcDbVertex
100
AcDb2dVertex
 10
2.084561239185492
 20
10.25007491577322
 30
0.0
  0
VERTEX
  5
115
330
FA
100
AcDbEntity
  8
Layer 1
 62
   142
370
    35
100
AcDbVertex
100
AcDb2dVertex
 10
4.084561151846858
 20
10.25007491577303
 30
0.0
  0
VERTEX
  5
116
330
FA
100
AcDbEntity
  8
Layer 1
 62
   142
370
    35
100
AcDbVertex
100
AcDb2dVertex
 10
4.084561151846858
 20
10.65007491445435
 30
0.0
  0
VERTEX
  5
117
330
FA
100
AcDbEntity
  8
Layer 1
 62
   142
370
    35
100
AcDbVertex
100
AcDb2dVertex
 10
6.084561495144813
 20
10.65007491445416
 30
0.0
  0
VERTEX
  5
118
330
FA
100
AcDbEntity
  8
Layer 1
 62
   142
370
    35
100
AcDbVertex
100
AcDb2dVertex
 10
6.084561495144749
 20
10.25007491577322
 30
0.0
  0
VERTEX
  5
119
330
FA
100
AcDbEntity
  8
Layer 1
 62
   142
370
    35
100
AcDbVertex
100
AcDb2dVertex
 10
8.084561838442673
 20
10.25007491577309
 30
0.0
  0
VERTEX
  5
11A
330
FA
100
AcDbEntity
  8
Layer 1
 62
   142
370
    35
100
AcDbVertex
100
AcDb2dVertex
 10
8.0845618384428
 20
10.65007491445441
 30
0.0
  0
VERTEX
  5
11B
330
FA
100
AcDbEntity
  8
Layer 1
 62
   142
370
    35
100
AcDbVertex
100
AcDb2dVertex
 10
10.08456218174069
 20
10.65007491445422
 30
0.0
  0
VERTEX
  5
11C
330
FA
100
AcDbEntity
  8
Layer 1
 62
   142
370
    35
100
AcDbVertex
100
AcDb2dVertex
 10
10.08456218174069
 20
10.25007491577322
 30
0.0
  0
VERTEX
  5
11D
330
FA
100
AcDbEntity
  8
Layer 1
 62
   142
370
    35
100
AcDbVertex
100
AcDb2dVertex
 10
11.17956078495409
 20
10.25007491577303
 30
0.0
  0
VERTEX
  5
11E
330
FA
100
AcDbEntity
  8
Layer 1
 62
   142
370
    35
100
AcDbVertex
100
AcDb2dVertex
 10
11.09972313439691
 20
10.25007494153487
 30
0.0
  0
VERTEX
  5
11F
330
FA
100
AcDbEntity
  8
Layer 1
 62
   142
370
    35
100
AcDbVertex
100
AcDb2dVertex
 10
12.50472323776006
 20
10.25007494153519
 30
0.0
  0
VERTEX
  5
120
330
FA
100
AcDbEntity
  8
Layer 1
 62
   142
370
    35
100
AcDbVertex
100
AcDb2dVertex
 10
12.50472323776006
 20
10.65007494021613
 30
0.0
  0
VERTEX
  5
121
330
FA
100
AcDbEntity
  8
Layer 1
 62
   142
370
    35
100
AcDbVertex
100
AcDb2dVertex
 10
13.43146579315888
 20
10.65007493254635
 30
0.0
  0
VERTEX
  5
122
330
FA
100
AcDbEntity
  8
Layer 1
 62
   142
370
    35
100
AcDbVertex
100
AcDb2dVertex
 10
13.43146587176316
 20
7.346703916918845
 30
0.0
  0
VERTEX
  5
123
330
FA
100
AcDbEntity
  8
Layer 1
 62
   142
370
    35
100
AcDbVertex
100
AcDb2dVertex
 10
13.83146525140448
 20
7.346703916918845
 30
0.0
  0
VERTEX
  5
124
330
FA
100
AcDbEntity
  8
Layer 1
 62
   142
370
    35
100
AcDbVertex
100
AcDb2dVertex
 10
13.83146525140435
 20
6.031703846229569
 30
0.0
  0
VERTEX
  5
125
330
FA
100
AcDbEntity
  8
Layer 1
 62
   142
370
    35
100
AcDbVertex
100
AcDb2dVertex
 10
13.46146573910905
 20
6.031703846229633
 30
0.0
  0
VERTEX
  5
126
330
FA
100
AcDbEntity
  8
Layer 1
 62
   142
370
    35
100
AcDbVertex
100
AcDb2dVertex
 10
13.46146573910905
 20
5.66170390329768
 30
0.0
  0
VERTEX
  5
127
330
FA
100
AcDbEntity
  8
Layer 1
 62
   142
370
    35
100
AcDbVertex
100
AcDb2dVertex
 10
13.83146525134544
 20
5.66170390329768
 30
0.0
  0
VERTEX
  5
128
330
FA
100
AcDbEntity
  8
Layer 1
 62
   142
370
    35
100
AcDbVertex
100
AcDb2dVertex
 10
13.83146525140448
 20
4.346703832608469
 30
0.0
  0
VERTEX
  5
129
330
FA
100
AcDbEntity
  8
Layer 1
 62
   142
370
    35
100
AcDbVertex
100
AcDb2dVertex
 10
13.43146587176355
 20
4.346703832608469
 30
0.0
  0
VERTEX
  5
12A
330
FA
100
AcDbEntity
  8
Layer 1
 62
   142
370
    35
100
AcDbVertex
100
AcDb2dVertex
 10
13.43146587176329
 20
2.346703489310193
 30
0.0
  0
VERTEX
  5
12B
330
FA
100
AcDbEntity
  8
Layer 1
 62
   142
370
    35
100
AcDbVertex
100
AcDb2dVertex
 10
13.83146525134532
 20
2.346703489310193
 30
0.0
  0
VERTEX
  5
12C
330
FA
100
AcDbEntity
  8
Layer 1
 62
   142
370
    35
100
AcDbVertex
100
AcDb2dVertex
 10
13.83146525140435
 20
1.031703849257507
 30
0.0
  0
VERTEX
  5
12D
330
FA
100
AcDbEntity
  8
Layer 1
 62
   142
370
    35
100
AcDbVertex
100
AcDb2dVertex
 10
13.46146573910905
 20
1.031703849257763
 30
0.0
  0
VERTEX
  5
12E
330
FA
100
AcDbEntity
  8
Layer 1
 62
   142
370
    35
100
AcDbVertex
100
AcDb2dVertex
 10
13.46146573910918
 20
0.6617034756890291
 30
0.0
  0
VERTEX
  5
12F
330
FA
100
AcDbEntity
  8
Layer 1
 62
   142
370
    35
100
AcDbVertex
100
AcDb2dVertex
 10
13.83146525134519
 20
0.6617034756890933
 30
0.0
  0
VERTEX
  5
130
330
FA
100
AcDbEntity
  8
Layer 1
 62
   142
370
    35
100
AcDbVertex
100
AcDb2dVertex
 10
13.83146525140422
 20
-0.6532961643636573
 30
0.0
  0
VERTEX
  5
131
330
FA
100
AcDbEntity
  8
Layer 1
 62
   142
370
    35
100
AcDbVertex
100
AcDb2dVertex
 10
13.43146587176329
 20
-0.6532961643636573
 30
0.0
  0
VERTEX
  5
132
330
FA
100
AcDbEntity
  8
Layer 1
 62
   142
370
    35
100
AcDbVertex
100
AcDb2dVertex
 10
13.42908659032722
 20
-3.573803036257493
 30
0.0
  0
VERTEX
  5
133
330
FA
100
AcDbEntity
  8
Layer 1
 62
   142
370
    35
100
AcDbVertex
100
AcDb2dVertex
 10
13.4314657937975
 20
-3.573803839600135
 30
0.0
  0
VERTEX
  5
134
330
FA
100
AcDbEntity
  8
Layer 1
 62
   142
370
    35
100
AcDbVertex
100
AcDb2dVertex
 10
12.50472323839868
 20
-3.573803831930356
 30
0.0
  0
VERTEX
  5
135
330
FA
100
AcDbEntity
  8
Layer 1
 62
   142
370
    35
100
AcDbVertex
100
AcDb2dVertex
 10
12.50472323839868
 20
-3.973803830611357
 30
0.0
  0
VERTEX
  5
136
330
FA
100
AcDbEntity
  8
Layer 1
 62
   142
370
    35
100
AcDbVertex
100
AcDb2dVertex
 10
11.09972313503553
 20
-3.973803830611614
 30
0.0
  0
VERTEX
  5
137
330
FA
100
AcDbEntity
  8
Layer 1
 62
   142
370
    35
100
AcDbVertex
100
AcDb2dVertex
 10
11.17956078559271
 20
-3.973803856373456
 30
0.0
  0
VERTEX
  5
138
330
FA
100
AcDbEntity
  8
Layer 1
 62
   142
370
    35
100
AcDbVertex
100
AcDb2dVertex
 10
10.08456218237931
 20
-3.973803856373264
 30
0.0
  0
VERTEX
  5
139
330
FA
100
AcDbEntity
  8
Layer 1
 62
   142
370
    35
100
AcDbVertex
100
AcDb2dVertex
 10
10.08456218237931
 20
-3.573803857692262
 30
0.0
  0
VERTEX
  5
13A
330
FA
100
AcDbEntity
  8
Layer 1
 62
   142
370
    35
100
AcDbVertex
100
AcDb2dVertex
 10
8.084561839081418
 20
-3.57380385769207
 30
0.0
  0
VERTEX
  5
13B
330
FA
100
AcDbEntity
  8
Layer 1
 62
   142
370
    35
100
AcDbVertex
100
AcDb2dVertex
 10
8.08456183908129
 20
-3.973803856373392
 30
0.0
  0
VERTEX
  5
13C
330
FA
100
AcDbEntity
  8
Layer 1
 62
   142
370
    35
100
AcDbVertex
100
AcDb2dVertex
 10
6.084561495783367
 20
-3.973803856373264
 30
0.0
  0
VERTEX
  5
13D
330
FA
100
AcDbEntity
  8
Layer 1
 62
   142
370
    35
100
AcDbVertex
100
AcDb2dVertex
 10
6.084561495783367
 20
-3.573803857692326
 30
0.0
  0
VERTEX
  5
13E
330
FA
100
AcDbEntity
  8
Layer 1
 62
   142
370
    35
100
AcDbVertex
100
AcDb2dVertex
 10
4.084561152485477
 20
-3.573803857692134
 30
0.0
  0
VERTEX
  5
13F
330
FA
100
AcDbEntity
  8
Layer 1
 62
   142
370
    35
100
AcDbVertex
100
AcDb2dVertex
 10
4.084561152485477
 20
-3.973803856373456
 30
0.0
  0
VERTEX
  5
140
330
FA
100
AcDbEntity
  8
Layer 1
 62
   142
370
    35
100
AcDbVertex
100
AcDb2dVertex
 10
2.084561239824111
 20
-3.973803856373264
 30
0.0
  0
VERTEX
  5
141
330
FA
100
AcDbEntity
  8
Layer 1
 62
   142
370
    35
100
AcDbVertex
100
AcDb2dVertex
 10
2.084561239824111
 20
-3.573803857691941
 30
0.0
  0
VERTEX
  5
142
330
FA
100
AcDbEntity
  8
Layer 1
 62
   142
370
    35
100
AcDbVertex
100
AcDb2dVertex
 10
0.0845613271623598
 20
-3.573803857692198
 30
0.0
  0
VERTEX
  5
143
330
FA
100
AcDbEntity
  8
Layer 1
 62
   142
370
    35
100
AcDbVertex
100
AcDb2dVertex
 10
0.0845613271623598
 20
-3.973803856373135
 30
0.0
  0
VERTEX
  5
144
330
FA
100
AcDbEntity
  8
Layer 1
 62
   142
370
    35
100
AcDbVertex
100
AcDb2dVertex
 10
-1.010438567960361
 20
-3.973803856373264
 30
0.0
  0
VERTEX
  5
145
330
FA
100
AcDbEntity
  8
Layer 1
 62
   142
370
    35
100
AcDbVertex
100
AcDb2dVertex
 10
-1.01529003972729
 20
-3.973803906305983
 30
0.0
  0
VERTEX
  5
146
330
FA
100
AcDbEntity
  8
Layer 1
 62
   142
370
    35
100
AcDbVertex
100
AcDb2dVertex
 10
-2.42029014309044
 20
-3.973803906305919
 30
0.0
  0
VERTEX
  5
147
330
FA
100
AcDbEntity
  8
Layer 1
 62
   142
370
    35
100
AcDbVertex
100
AcDb2dVertex
 10
-2.42029014309044
 20
-3.573803907624982
 30
0.0
  0
VERTEX
  5
148
330
FA
100
AcDbEntity
  8
Layer 1
 62
   142
370
    35
100
AcDbVertex
100
AcDb2dVertex
 10
-2.862529809385673
 20
-3.573803872390378
 30
0.0
  0
SEQEND
  5
149
330
FA
100
AcDbEntity
  8
Layer 1
 62
   142
370
    35
  0
SPLINE
  5
14A
330
1F
100
AcDbEntity
  8
Layer 1
 62
   142
370
    35
100
AcDbSpline
210
0.0
220
0.0
230
1.0
 70
     8
 71
     3
 72
   242
 73
   238
 74
     0
 42
0.0000000001
 43
0.0000000001
 12
1.0
 22
0.0
 32
0.0
 13
1.0
 23
0.0
 33
0.0
 40
0.0
 40
0.0
 40
0.0
 40
0.0
 40
1.0
 40
1.0
 40
1.0
 40
2.0
 40
2.0
 40
2.0
 40
3.0
 40
3.0
 40
3.0
 40
4.0
 40
4.0
 40
4.0
 40
5.0
 40
5.0
 40
5.0
 40
6.0
 40
6.0
 40
6.0
 40
7.0
 40
7.0
 40
7.0
 40
8.0
 40
8.0
 40
8.0
 40
9.0
 40
9.0
 40
9.0
 40
10.0
 40
10.0
 40
10.0
 40
11.0
 40
11.0
 40
11.0
 40
12.0
 40
12.0
 40
12.0
 40
13.0
 40
13.0
 40
13.0
 40
14.0
 40
14.0
 40
14.0
 40
15.0
 40
15.0
 40
15.0
 40
16.0
 40
16.0
 40
16.0
 40
17.0
 40
17.0
 40
17.0
 40
18.0
 40
18.0
 40
18.0
 40
19.0
 40
19.0
 40
19.0
 40
20.0
 40
20.0
 40
20.0
 40
21.0
 40
21.0
 40
21.0
 40
22.0
 40
22.0
 40
22.0
 40
23.0
 40
23.0
 40
23.0
 40
24.0
 40
24.0
 40
24.0
 40
25.0
 40
25.0
 40
25.0
 40
26.0
 40
26.0
 40
26.0
 40
27.0
 40
27.0
 40
27.0
 40
28.0
 40
28.0
 40
28.0
 40
29.0
 40
29.0
 40
29.0
 40
30.0
 40
30.0
 40
30.0
 40
31.0
 40
31.0
 40
31.0
 40
32.0
 40
32.0
 40
32.0
 40
33.0
 40
33.0
 40
33.0
 40
34.0
 40
34.0
 40
34.0
 40
35.0
 40
35.0
 40
35.0
 40
36.0
 40
36.0
 40
36.0
 40
37.0
 40
37.0
 40
37.0
 40
38.0
 40
38.0
 40
38.0
 40
39.0
 40
39.0
 40
39.0
 40
40.0
 40
40.0
 40
40.0
 40
41.0
 40
41.0
 40
41.0
 40
42.0
 40
42.0
 40
42.0
 40
43.0
 40
43.0
 40
43.0
 40
44.0
 40
44.0
 40
44.0
 40
45.0
 40
45.0
 40
45.0
 40
46.0
 40
46.0
 40
46.0
 40
47.0
 40
47.0
 40
47.0
 40
48.0
 40
48.0
 40
48.0
 40
49.0
 40
49.0
 40
49.0
 40
50.0
 40
50.0
 40
50.0
 40
51.0
 40
51.0
 40
51.0
 40
52.0
 40
52.0
 40
52.0
 40
53.0
 40
53.0
 40
53.0
 40
54.0
 40
54.0
 40
54.0
 40
55.0
 40
55.0
 40
55.0
 40
56.0
 40
56.0
 40
56.0
 40
57.0
 40
57.0
 40
57.0
 40
58.0
 40
58.0
 40
58.0
 40
59.0
 40
59.0
 40
59.0
 40
60.0
 40
60.0
 40
60.0
 40
61.0
 40
61.0
 40
61.0
 40
62.0
 40
62.0
 40
62.0
 40
63.0
 40
63.0
 40
63.0
 40
64.0
 40
64.0
 40
64.0
 40
65.0
 40
65.0
 40
65.0
 40
66.0
 40
66.0
 40
66.0
 40
67.0
 40
67.0
 40
67.0
 40
68.0
 40
68.0
 40
68.0
 40
69.0
 40
69.0
 40
69.0
 40
70.0
 40
70.0
 40
70.0
 40
71.0
 40
71.0
 40
71.0
 40
72.0
 40
72.0
 40
72.0
 40
73.0
 40
73.0
 40
73.0
 40
74.0
 40
74.0
 40
74.0
 40
75.0
 40
75.0
 40
75.0
 40
76.0
 40
76.0
 40
76.0
 40
77.0
 40
77.0
 40
77.0
 40
78.0
 40
78.0
 40
78.0
 40
79.0
 40
79.0
 40
79.0
 40
79.0
 10
4.361657036451409
 20
-35.01526910818669
 30
0.0
 10
4.188539291850668
 20
-34.83547804740828
 30
0.0
 10
4.082088982964531
 20
-34.59104131164968
 30
0.0
 10
4.082088982964531
 20
-34.32174177408243
 30
0.0
 10
4.082088982964531
 20
-33.76945692948357
 30
0.0
 10
4.529804310014417
 20
-33.32174160243355
 30
0.0
 10
5.08208915461354
 20
-33.32174160243355
 30
0.0
 10
5.634373999212663
 20
-33.32174160243355
 30
0.0
 10
6.082089326262549
 20
-33.76945692948357
 30
0.0
 10
6.082089326262549
 20
-34.32174177408243
 30
0.0
 10
6.082089326262549
 20
-34.59100549605868
 30
0.0
 10
5.975667330289689
 20
-34.83541302906129
 30
0.0
 10
5.802590340812722
 20
-35.01519737062125
 30
0.0
 10
5.802590340812722
 20
-35.01519737062125
 30
0.0
 10
6.082089326262549
 20
-35.01507493534356
 30
0.0
 10
6.082089326262549
 20
-35.01507493534356
 30
0.0
 10
6.082089326262549
 20
-35.01507493534356
 30
0.0
 10
6.082089326262485
 20
-35.41507493402488
 30
0.0
 10
6.082089326262485
 20
-35.41507493402488
 30
0.0
 10
6.082089326262485
 20
-35.41507493402488
 30
0.0
 10
8.082089669560473
 20
-35.41507493402449
 30
0.0
 10
8.082089669560473
 20
-35.41507493402449
 30
0.0
 10
8.082089669560473
 20
-35.41507493402449
 30
0.0
 10
8.082089669560473
 20
-35.01507493534356
 30
0.0
 10
8.082089669560473
 20
-35.01507493534356
 30
0.0
 10
8.082089669560473
 20
-35.01507493534356
 30
0.0
 10
10.08209001285849
 20
-35.01507493534356
 30
0.0
 10
10.08209001285849
 20
-35.01507493534356
 30
0.0
 10
10.08209001285849
 20
-35.01507493534356
 30
0.0
 10
10.08209001285836
 20
-35.41507493402488
 30
0.0
 10
10.08209001285836
 20
-35.41507493402488
 30
0.0
 10
10.08209001285836
 20
-35.41507493402488
 30
0.0
 10
11.48709011622151
 20
-35.41507493402488
 30
0.0
 10
11.48709011622151
 20
-35.41507493402488
 30
0.0
 10
11.48709011622151
 20
-35.41507493402488
 30
0.0
 10
12.58208871943466
 20
-35.41507493402488
 30
0.0
 10
12.58208871943466
 20
-35.41507493402488
 30
0.0
 10
12.58208871943466
 20
-35.41507493402488
 30
0.0
 10
12.58208871943466
 20
-35.01507493534381
 30
0.0
 10
12.58208871943466
 20
-35.01507493534381
 30
0.0
 10
12.58208871943466
 20
-35.01507493534381
 30
0.0
 10
13.42908717730153
 20
-35.01507493539989
 30
0.0
 10
13.42908717730153
 20
-35.01507493539989
 30
0.0
 10
13.42908717730153
 20
-35.01507493539989
 30
0.0
 10
13.43146645873785
 20
-32.09456806350619
 30
0.0
 10
13.43146645873785
 20
-32.09456806350619
 30
0.0
 10
13.43146645873785
 20
-32.09456806350619
 30
0.0
 10
13.83146583837891
 20
-32.09456806350619
 30
0.0
 10
13.83146583837891
 20
-32.09456806350619
 30
0.0
 10
13.83146583837891
 20
-32.09456806350619
 30
0.0
 10
13.83146583837878
 20
-30.7795684234535
 30
0.0
 10
13.83146583837878
 20
-30.7795684234535
 30
0.0
 10
13.83146583837878
 20
-30.7795684234535
 30
0.0
 10
13.46146632608349
 20
-30.7795684234535
 30
0.0
 10
13.46146632608349
 20
-30.7795684234535
 30
0.0
 10
13.46146632608349
 20
-30.7795684234535
 30
0.0
 10
13.46146632608336
 20
-30.40956804988477
 30
0.0
 10
13.46146632608336
 20
-30.40956804988477
 30
0.0
 10
13.46146632608336
 20
-30.40956804988477
 30
0.0
 10
13.83146583837878
 20
-30.40956804988502
 30
0.0
 10
13.83146583837878
 20
-30.40956804988502
 30
0.0
 10
13.83146583837878
 20
-30.40956804988502
 30
0.0
 10
13.83146583837891
 20
-29.09456840983234
 30
0.0
 10
13.83146583837891
 20
-29.09456840983234
 30
0.0
 10
13.83146583837891
 20
-29.09456840983234
 30
0.0
 10
13.43146645873759
 20
-29.09456840983234
 30
0.0
 10
13.43146645873759
 20
-29.09456840983234
 30
0.0
 10
13.43146645873759
 20
-29.09456840983234
 30
0.0
 10
13.43146645873785
 20
-27.09456806653406
 30
0.0
 10
13.43146645873785
 20
-27.09456806653406
 30
0.0
 10
13.43146645873785
 20
-27.09456806653406
 30
0.0
 10
13.83146583837878
 20
-27.09456806653406
 30
0.0
 10
13.83146583837878
 20
-27.09456806653406
 30
0.0
 10
13.83146583837878
 20
-27.09456806653406
 30
0.0
 10
13.83146583837904
 20
-25.77956799584485
 30
0.0
 10
13.83146583837904
 20
-25.77956799584485
 30
0.0
 10
13.83146583837904
 20
-25.77956799584485
 30
0.0
 10
13.46146632608374
 20
-25.77956799584485
 30
0.0
 10
13.46146632608374
 20
-25.77956799584485
 30
0.0
 10
13.46146632608374
 20
-25.77956799584485
 30
0.0
 10
13.46146632608361
 20
-25.4095680529129
 30
0.0
 10
13.46146632608361
 20
-25.4095680529129
 30
0.0
 10
13.46146632608361
 20
-25.4095680529129
 30
0.0
 10
13.83146583837904
 20
-25.4095680529129
 30
0.0
 10
13.83146583837904
 20
-25.4095680529129
 30
0.0
 10
13.83146583837904
 20
-25.4095680529129
 30
0.0
 10
13.83146583837891
 20
-24.09456798222369
 30
0.0
 10
13.83146583837891
 20
-24.09456798222369
 30
0.0
 10
13.83146583837891
 20
-24.09456798222369
 30
0.0
 10
13.43146645873785
 20
-24.09456798222369
 30
0.0
 10
13.43146645873785
 20
-24.09456798222369
 30
0.0
 10
13.43146645873785
 20
-24.09456798222369
 30
0.0
 10
13.43146638013318
 20
-20.79119696659618
 30
0.0
 10
13.43146638013318
 20
-20.79119696659618
 30
0.0
 10
13.43146638013318
 20
-20.79119696659618
 30
0.0
 10
12.50472382473437
 20
-20.79119695892647
 30
0.0
 10
12.50472382473437
 20
-20.79119695892647
 30
0.0
 10
12.50472382473437
 20
-20.79119695892647
 30
0.0
 10
12.50472382473437
 20
-21.1911969576074
 30
0.0
 10
12.50472382473437
 20
-21.1911969576074
 30
0.0
 10
12.50472382473437
 20
-21.1911969576074
 30
0.0
 10
11.09972372137147
 20
-21.1911969576074
 30
0.0
 10
11.09972372137147
 20
-21.1911969576074
 30
0.0
 10
11.09972372137147
 20
-21.1911969576074
 30
0.0
 10
11.1795613719284
 20
-21.19119698336931
 30
0.0
 10
11.1795613719284
 20
-21.19119698336931
 30
0.0
 10
11.1795613719284
 20
-21.19119698336931
 30
0.0
 10
10.08456276871538
 20
-21.19119698336931
 30
0.0
 10
10.08456276871538
 20
-21.19119698336931
 30
0.0
 10
10.08456276871538
 20
-21.19119698336931
 30
0.0
 10
10.08456276871538
 20
-20.79119698468837
 30
0.0
 10
10.08456276871538
 20
-20.79119698468837
 30
0.0
 10
10.08456276871538
 20
-20.79119698468837
 30
0.0
 10
8.08456242541736
 20
-20.79119698468799
 30
0.0
 10
8.08456242541736
 20
-20.79119698468799
 30
0.0
 10
8.08456242541736
 20
-20.79119698468799
 30
0.0
 10
8.08456242541736
 20
-21.19119698336931
 30
0.0
 10
8.08456242541736
 20
-21.19119698336931
 30
0.0
 10
8.08456242541736
 20
-21.19119698336931
 30
0.0
 10
6.084562082119052
 20
-21.19119698336931
 30
0.0
 10
6.084562082119052
 20
-21.19119698336931
 30
0.0
 10
6.084562082119052
 20
-21.19119698336931
 30
0.0
 10
6.084562082119052
 20
-20.79119698468837
 30
0.0
 10
6.084562082119052
 20
-20.79119698468837
 30
0.0
 10
6.084562082119052
 20
-20.79119698468837
 30
0.0
 10
4.084561738821161
 20
-20.79119698468799
 30
0.0
 10
4.084561738821161
 20
-20.79119698468799
 30
0.0
 10
4.084561738821161
 20
-20.79119698468799
 30
0.0
 10
4.084561738821161
 20
-21.19119698336931
 30
0.0
 10
4.084561738821161
 20
-21.19119698336931
 30
0.0
 10
4.084561738821161
 20
-21.19119698336931
 30
0.0
 10
2.084561826159796
 20
-21.19119698336931
 30
0.0
 10
2.084561826159796
 20
-21.19119698336931
 30
0.0
 10
2.084561826159796
 20
-21.19119698336931
 30
0.0
 10
2.084561826159796
 20
-20.79119698468799
 30
0.0
 10
2.084561826159796
 20
-20.79119698468799
 30
0.0
 10
2.084561826159796
 20
-20.79119698468799
 30
0.0
 10
0.0845619134984296
 20
-20.79119698468799
 30
0.0
 10
0.0845619134984296
 20
-20.79119698468799
 30
0.0
 10
0.0845619134984296
 20
-20.79119698468799
 30
0.0
 10
0.0845619134983012
 20
-21.19119698336905
 30
0.0
 10
0.0845619134983012
 20
-21.19119698336905
 30
0.0
 10
0.0845619134983012
 20
-21.19119698336905
 30
0.0
 10
-1.010437981624291
 20
-21.19119698336931
 30
0.0
 10
-1.010437981624291
 20
-21.19119698336931
 30
0.0
 10
-1.010437981624291
 20
-21.19119698336931
 30
0.0
 10
-1.015289453391605
 20
-21.19119703330184
 30
0.0
 10
-1.015289453391605
 20
-21.19119703330184
 30
0.0
 10
-1.015289453391605
 20
-21.19119703330184
 30
0.0
 10
-2.420289556754755
 20
-21.19119703330184
 30
0.0
 10
-2.420289556754755
 20
-21.19119703330184
 30
0.0
 10
-2.420289556754755
 20
-21.19119703330184
 30
0.0
 10
-2.420289556754691
 20
-20.7911970346209
 30
0.0
 10
-2.420289556754691
 20
-20.7911970346209
 30
0.0
 10
-2.420289556754691
 20
-20.7911970346209
 30
0.0
 10
-2.862529223049539
 20
-20.79119699938623
 30
0.0
 10
-2.862529223049539
 20
-20.79119699938623
 30
0.0
 10
-2.862529223049539
 20
-20.79119699938623
 30
0.0
 10
-2.864908504730928
 20
-24.09978385353014
 30
0.0
 10
-2.864908504730928
 20
-24.09978385353014
 30
0.0
 10
-2.864908504730928
 20
-24.09978385353014
 30
0.0
 10
-3.26490788437199
 20
-24.09978385349408
 30
0.0
 10
-3.26490788437199
 20
-24.09978385349408
 30
0.0
 10
-3.26490788437199
 20
-24.09978385349408
 30
0.0
 10
-3.264907884490063
 20
-25.41478349354689
 30
0.0
 10
-3.264907884490063
 20
-25.41478349354689
 30
0.0
 10
-3.264907884490063
 20
-25.41478349354689
 30
0.0
 10
-2.894908372194763
 20
-25.41478349358
 30
0.0
 10
-2.894908372194763
 20
-25.41478349358
 30
0.0
 10
-2.894908372194763
 20
-25.41478349358
 30
0.0
 10
-2.894908372227875
 20
-25.78478386714874
 30
0.0
 10
-2.894908372227875
 20
-25.78478386714874
 30
0.0
 10
-2.894908372227875
 20
-25.78478386714874
 30
0.0
 10
-3.264907884523174
 20
-25.78478386711524
 30
0.0
 10
-3.264907884523174
 20
-25.78478386711524
 30
0.0
 10
-3.264907884523174
 20
-25.78478386711524
 30
0.0
 10
-3.264907884641246
 20
-27.09978350716793
 30
0.0
 10
-3.264907884641246
 20
-27.09978350716793
 30
0.0
 10
-3.264907884641246
 20
-27.09978350716793
 30
0.0
 10
-2.864908505000185
 20
-27.09978350720386
 30
0.0
 10
-2.864908505000185
 20
-27.09978350720386
 30
0.0
 10
-2.864908505000185
 20
-27.09978350720386
 30
0.0
 10
-2.864908505179605
 20
-29.09978385050227
 30
0.0
 10
-2.864908505179605
 20
-29.09978385050227
 30
0.0
 10
-2.864908505179605
 20
-29.09978385050227
 30
0.0
 10
-3.264907884820922
 20
-29.0997838504662
 30
0.0
 10
-3.264907884820922
 20
-29.0997838504662
 30
0.0
 10
-3.264907884820922
 20
-29.0997838504662
 30
0.0
 10
-3.264907884938995
 20
-30.41478392115554
 30
0.0
 10
-3.264907884938995
 20
-30.41478392115554
 30
0.0
 10
-3.264907884938995
 20
-30.41478392115554
 30
0.0
 10
-2.894908372643695
 20
-30.41478392118865
 30
0.0
 10
-2.894908372643695
 20
-30.41478392118865
 30
0.0
 10
-2.894908372643695
 20
-30.41478392118865
 30
0.0
 10
-2.894908372676807
 20
-30.78478386412048
 30
0.0
 10
-2.894908372676807
 20
-30.78478386412048
 30
0.0
 10
-2.894908372676807
 20
-30.78478386412048
 30
0.0
 10
-3.264907884972107
 20
-30.78478386408698
 30
0.0
 10
-3.264907884972107
 20
-30.78478386408698
 30
0.0
 10
-3.264907884972107
 20
-30.78478386408698
 30
0.0
 10
-3.264907885090115
 20
-32.09978393477658
 30
0.0
 10
-3.264907885090115
 20
-32.09978393477658
 30
0.0
 10
-3.264907885090115
 20
-32.09978393477658
 30
0.0
 10
-2.864908505449182
 20
-32.09978393481251
 30
0.0
 10
-2.864908505449182
 20
-32.09978393481251
 30
0.0
 10
-2.864908505449182
 20
-32.09978393481251
 30
0.0
 10
-2.864908436340762
 20
-35.01507493575835
 30
0.0
 10
-2.864908436340762
 20
-35.01507493575835
 30
0.0
 10
-2.864908436340762
 20
-35.01507493575835
 30
0.0
 10
-2.417910840844457
 20
-35.01507493534356
 30
0.0
 10
-2.417910840844457
 20
-35.01507493534356
 30
0.0
 10
-2.417910840844457
 20
-35.01507493534356
 30
0.0
 10
-2.417910840844457
 20
-35.41507493402488
 30
0.0
 10
-2.417910840844457
 20
-35.41507493402488
 30
0.0
 10
-2.417910840844457
 20
-35.41507493402488
 30
0.0
 10
-1.012910737481307
 20
-35.41507493402488
 30
0.0
 10
-1.012910737481307
 20
-35.41507493402488
 30
0.0
 10
-1.012910737481307
 20
-35.41507493402488
 30
0.0
 10
0.0820891576414136
 20
-35.41507493402449
 30
0.0
 10
0.0820891576414136
 20
-35.41507493402449
 30
0.0
 10
0.0820891576414136
 20
-35.41507493402449
 30
0.0
 10
0.0820891576414136
 20
-35.01507493534381
 30
0.0
 10
0.0820891576414136
 20
-35.01507493534381
 30
0.0
 10
0.0820891576414136
 20
-35.01507493534381
 30
0.0
 10
2.082089070302908
 20
-35.01507493534381
 30
0.0
 10
2.082089070302908
 20
-35.01507493534381
 30
0.0
 10
2.082089070302908
 20
-35.01507493534381
 30
0.0
 10
2.082089070302779
 20
-35.41507493402488
 30
0.0
 10
2.082089070302779
 20
-35.41507493402488
 30
0.0
 10
2.082089070302779
 20
-35.41507493402488
 30
0.0
 10
4.082088982964531
 20
-35.41507493402488
 30
0.0
 10
4.082088982964531
 20
-35.41507493402488
 30
0.0
 10
4.082088982964531
 20
-35.41507493402488
 30
0.0
 10
4.082088982964274
 20
-35.01507493534381
 30
0.0
 10
4.082088982964274
 20
-35.01507493534381
 30
0.0
 10
4.082088982964274
 20
-35.01507493534381
 30
0.0
 10
4.361759308870867
 20
-35.01507493534381
 30
0.0
 10
4.361759308870867
 20
-35.01507493534381
 30
0.0
  0
SPLINE
  5
14B
330
1F
100
AcDbEntity
  8
Layer 1
 62
   142
370
    35
100
AcDbSpline
210
0.0
220
0.0
230
1.0
 70
    11
 71
     3
 72
    17
 73
    13
 74
     0
 42
0.0000000001
 43
0.0000000001
 12
1.0
 22
0.0
 32
0.0
 13
1.0
 23
0.0
 33
0.0
 40
0.0
 40
0.0
 40
0.0
 40
0.0
 40
1.0
 40
1.0
 40
1.0
 40
2.0
 40
2.0
 40
2.0
 40
3.0
 40
3.0
 40
3.0
 40
4.0
 40
4.0
 40
4.0
 40
4.0
 10
7.284467973793537
 20
3.538135523516901
 30
0.0
 10
7.284467973793537
 20
2.433566024193037
 30
0.0
 10
6.389037473617406
 20
1.538135524016907
 30
0.0
 10
5.284467974293542
 20
1.538135524016907
 30
0.0
 10
4.179898474969678
 20
1.538135524016907
 30
0.0
 10
3.284467974793548
 20
2.433566024193037
 30
0.0
 10
3.284467974793548
 20
3.538135523516901
 30
0.0
 10
3.284467974793548
 20
4.642705022840764
 30
0.0
 10
4.179898474969678
 20
5.538135523016895
 30
0.0
 10
5.284467974293542
 20
5.538135523016895
 30
0.0
 10
6.389037473617406
 20
5.538135523016895
 30
0.0
 10
7.284467973793537
 20
4.642705022840764
 30
0.0
 10
7.284467973793537
 20
3.538135523516901
 30
0.0
  0
SPLINE
  5
14C
330
1F
100
AcDbEntity
  8
Layer 1
 62
   142
370
    35
100
AcDbSpline
210
0.0
220
0.0
230
1.0
 70
     8
 71
     3
 72
   317
 73
   313
 74
     0
 42
0.0000000001
 43
0.0000000001
 12
1.0
 22
0.0
 32
0.0
 13
1.0
 23
0.0
 33
0.0
 40
0.0
 40
0.0
 40
0.0
 40
0.0
 40
1.0
 40
1.0
 40
1.0
 40
2.0
 40
2.0
 40
2.0
 40
3.0
 40
3.0
 40
3.0
 40
4.0
 40
4.0
 40
4.0
 40
5.0
 40
5.0
 40
5.0
 40
6.0
 40
6.0
 40
6.0
 40
7.0
 40
7.0
 40
7.0
 40
8.0
 40
8.0
 40
8.0
 40
9.0
 40
9.0
 40
9.0
 40
10.0
 40
10.0
 40
10.0
 40
11.0
 40
11.0
 40
11.0
 40
12.0
 40
12.0
 40
12.0
 40
13.0
 40
13.0
 40
13.0
 40
14.0
 40
14.0
 40
14.0
 40
15.0
 40
15.0
 40
15.0
 40
16.0
 40
16.0
 40
16.0
 40
17.0
 40
17.0
 40
17.0
 40
18.0
 40
18.0
 40
18.0
 40
19.0
 40
19.0
 40
19.0
 40
20.0
 40
20.0
 40
20.0
 40
21.0
 40
21.0
 40
21.0
 40
22.0
 40
22.0
 40
22.0
 40
23.0
 40
23.0
 40
23.0
 40
24.0
 40
24.0
 40
24.0
 40
25.0
 40
25.0
 40
25.0
 40
26.0
 40
26.0
 40
26.0
 40
27.0
 40
27.0
 40
27.0
 40
28.0
 40
28.0
 40
28.0
 40
29.0
 40
29.0
 40
29.0
 40
30.0
 40
30.0
 40
30.0
 40
31.0
 40
31.0
 40
31.0
 40
32.0
 40
32.0
 40
32.0
 40
33.0
 40
33.0
 40
33.0
 40
34.0
 40
34.0
 40
34.0
 40
35.0
 40
35.0
 40
35.0
 40
36.0
 40
36.0
 40
36.0
 40
37.0
 40
37.0
 40
37.0
 40
38.0
 40
38.0
 40
38.0
 40
39.0
 40
39.0
 40
39.0
 40
40.0
 40
40.0
 40
40.0
 40
41.0
 40
41.0
 40
41.0
 40
42.0
 40
42.0
 40
42.0
 40
43.0
 40
43.0
 40
43.0
 40
44.0
 40
44.0
 40
44.0
 40
45.0
 40
45.0
 40
45.0
 40
46.0
 40
46.0
 40
46.0
 40
47.0
 40
47.0
 40
47.0
 40
48.0
 40
48.0
 40
48.0
 40
49.0
 40
49.0
 40
49.0
 40
50.0
 40
50.0
 40
50.0
 40
51.0
 40
51.0
 40
51.0
 40
52.0
 40
52.0
 40
52.0
 40
53.0
 40
53.0
 40
53.0
 40
54.0
 40
54.0
 40
54.0
 40
55.0
 40
55.0
 40
55.0
 40
56.0
 40
56.0
 40
56.0
 40
57.0
 40
57.0
 40
57.0
 40
58.0
 40
58.0
 40
58.0
 40
59.0
 40
59.0
 40
59.0
 40
60.0
 40
60.0
 40
60.0
 40
61.0
 40
61.0
 40
61.0
 40
62.0
 40
62.0
 40
62.0
 40
63.0
 40
63.0
 40
63.0
 40
64.0
 40
64.0
 40
64.0
 40
65.0
 40
65.0
 40
65.0
 40
66.0
 40
66.0
 40
66.0
 40
67.0
 40
67.0
 40
67.0
 40
68.0
 40
68.0
 40
68.0
 40
69.0
 40
69.0
 40
69.0
 40
70.0
 40
70.0
 40
70.0
 40
71.0
 40
71.0
 40
71.0
 40
72.0
 40
72.0
 40
72.0
 40
73.0
 40
73.0
 40
73.0
 40
74.0
 40
74.0
 40
74.0
 40
75.0
 40
75.0
 40
75.0
 40
76.0
 40
76.0
 40
76.0
 40
77.0
 40
77.0
 40
77.0
 40
78.0
 40
78.0
 40
78.0
 40
79.0
 40
79.0
 40
79.0
 40
80.0
 40
80.0
 40
80.0
 40
81.0
 40
81.0
 40
81.0
 40
82.0
 40
82.0
 40
82.0
 40
83.0
 40
83.0
 40
83.0
 40
84.0
 40
84.0
 40
84.0
 40
85.0
 40
85.0
 40
85.0
 40
86.0
 40
86.0
 40
86.0
 40
87.0
 40
87.0
 40
87.0
 40
88.0
 40
88.0
 40
88.0
 40
89.0
 40
89.0
 40
89.0
 40
90.0
 40
90.0
 40
90.0
 40
91.0
 40
91.0
 40
91.0
 40
92.0
 40
92.0
 40
92.0
 40
93.0
 40
93.0
 40
93.0
 40
94.0
 40
94.0
 40
94.0
 40
95.0
 40
95.0
 40
95.0
 40
96.0
 40
96.0
 40
96.0
 40
97.0
 40
97.0
 40
97.0
 40
98.0
 40
98.0
 40
98.0
 40
99.0
 40
99.0
 40
99.0
 40
100.0
 40
100.0
 40
100.0
 40
101.0
 40
101.0
 40
101.0
 40
102.0
 40
102.0
 40
102.0
 40
103.0
 40
103.0
 40
103.0
 40
104.0
 40
104.0
 40
104.0
 40
104.0
 10
14.8586833393663
 20
-16.75697890735014
 30
0.0
 10
14.8586833393663
 20
-16.75697890735014
 30
0.0
 10
15.85870006495674
 20
-16.75697890735014
 30
0.0
 10
15.85870006495674
 20
-16.75697890735014
 30
0.0
 10
15.85870006495674
 20
-16.75697890735014
 30
0.0
 10
15.85870006495674
 20
-18.15697890700008
 30
0.0
 10
15.85870006495674
 20
-18.15697890700008
 30
0.0
 10
15.85870006495674
 20
-18.15697890700008
 30
0.0
 10
14.45870006530668
 20
-18.15697890700008
 30
0.0
 10
14.45870010648848
 20
-18.15699355941387
 30
0.0
 10
14.45870010648848
 20
-18.15699355941387
 30
0.0
 10
14.45870010650786
 20
-20.09994364421843
 30
0.0
 10
14.45870010650786
 20
-20.09994364421843
 30
0.0
 10
14.45870010650786
 20
-20.09994364421843
 30
0.0
 10
14.55508695234667
 20
-20.12577037473109
 30
0.0
 10
14.55508695234667
 20
-20.12577037473109
 30
0.0
 10
14.55508695234667
 20
-20.12577037473109
 30
0.0
 10
17.39537487600809
 20
-18.485929330357
 30
0.0
 10
17.39537487600809
 20
-18.485929330357
 30
0.0
 10
17.39537487600809
 20
-18.485929330357
 30
0.0
 10
17.19537487662566
 20
-18.13951917000961
 30
0.0
 10
17.19537487662566
 20
-18.13951917000961
 30
0.0
 10
17.19537487662566
 20
-18.13951917000961
 30
0.0
 10
18.36017899097233
 20
-17.46701920085243
 30
0.0
 10
18.36017899097233
 20
-17.46701920085243
 30
0.0
 10
18.36017899097233
 20
-17.46701920085243
 30
0.0
 10
18.20517898102138
 20
-17.19855130851871
 30
0.0
 10
18.20517898102138
 20
-17.19855130851871
 30
0.0
 10
18.20517898102138
 20
-17.19855130851871
 30
0.0
 10
18.09692578697468
 20
-17.26105131925948
 30
0.0
 10
18.09692578697468
 20
-17.26105131925948
 30
0.0
 10
18.09692578697468
 20
-17.26105131925948
 30
0.0
 10
17.97192576549238
 20
-17.04454493116544
 30
0.0
 10
17.97192576549238
 20
-17.04454493116544
 30
0.0
 10
17.97192576549238
 20
-17.04454493116544
 30
0.0
 10
18.08017895953946
 20
-16.98204492042429
 30
0.0
 10
18.08017895953946
 20
-16.98204492042429
 30
0.0
 10
18.08017895953946
 20
-16.98204492042429
 30
0.0
 10
17.95517899188723
 20
-16.76553862556578
 30
0.0
 10
17.95517899188723
 20
-16.76553862556578
 30
0.0
 10
17.95517899188723
 20
-16.76553862556578
 30
0.0
 10
18.22364704738346
 20
-16.61053852141329
 30
0.0
 10
18.22364704738346
 20
-16.61053852141329
 30
0.0
 10
18.22364704738346
 20
-16.61053852141329
 30
0.0
 10
18.34864701503568
 20
-16.82704481627205
 30
0.0
 10
18.34864701503568
 20
-16.82704481627205
 30
0.0
 10
18.34864701503568
 20
-16.82704481627205
 30
0.0
 10
18.45690020908277
 20
-16.7645448055309
 30
0.0
 10
18.45690020908277
 20
-16.7645448055309
 30
0.0
 10
18.45690020908277
 20
-16.7645448055309
 30
0.0
 10
18.58190023056508
 20
-16.98105119362494
 30
0.0
 10
18.58190023056508
 20
-16.98105119362494
 30
0.0
 10
18.58190023056508
 20
-16.98105119362494
 30
0.0
 10
18.47364703651773
 20
-17.04355120436648
 30
0.0
 10
18.47364703651773
 20
-17.04355120436648
 30
0.0
 10
18.47364703651773
 20
-17.04355120436648
 30
0.0
 10
18.62864704646829
 20
-17.31201909669981
 30
0.0
 10
18.62864704646829
 20
-17.31201909669981
 30
0.0
 10
18.62864704646829
 20
-17.31201909669981
 30
0.0
 10
19.79345116081471
 20
-16.63951912754339
 30
0.0
 10
19.79345116081471
 20
-16.63951912754339
 30
0.0
 10
19.79345116081471
 20
-16.63951912754339
 30
0.0
 10
19.99345116019676
 20
-16.98592928789065
 30
0.0
 10
19.99345116019676
 20
-16.98592928789065
 30
0.0
 10
19.99345116019676
 20
-16.98592928789065
 30
0.0
 10
21.72550226495063
 20
-15.98592911603463
 30
0.0
 10
21.72550226495063
 20
-15.98592911603463
 30
0.0
 10
21.72550226495063
 20
-15.98592911603463
 30
0.0
 10
21.52550226556858
 20
-15.63951895568686
 30
0.0
 10
21.52550226556858
 20
-15.63951895568686
 30
0.0
 10
21.52550226556858
 20
-15.63951895568686
 30
0.0
 10
22.69030600697286
 20
-14.96701920184819
 30
0.0
 10
22.69030600697286
 20
-14.96701920184819
 30
0.0
 10
22.69030600697286
 20
-14.96701920184819
 30
0.0
 10
22.53530599702217
 20
-14.69855130951409
 30
0.0
 10
22.53530599702217
 20
-14.69855130951409
 30
0.0
 10
22.53530599702217
 20
-14.69855130951409
 30
0.0
 10
22.42705280297509
 20
-14.76105132025525
 30
0.0
 10
22.42705280297509
 20
-14.76105132025525
 30
0.0
 10
22.42705280297509
 20
-14.76105132025525
 30
0.0
 10
22.30205278149278
 20
-14.54454493216121
 30
0.0
 10
22.30205278149278
 20
-14.54454493216121
 30
0.0
 10
22.30205278149278
 20
-14.54454493216121
 30
0.0
 10
22.41030597554012
 20
-14.48204492142005
 30
0.0
 10
22.41030597554012
 20
-14.48204492142005
 30
0.0
 10
22.41030597554012
 20
-14.48204492142005
 30
0.0
 10
22.28530600788725
 20
-14.26553862656129
 30
0.0
 10
22.28530600788725
 20
-14.26553862656129
 30
0.0
 10
22.28530600788725
 20
-14.26553862656129
 30
0.0
 10
22.5537736904416
 20
-14.11053873772731
 30
0.0
 10
22.5537736904416
 20
-14.11053873772731
 30
0.0
 10
22.5537736904416
 20
-14.11053873772731
 30
0.0
 10
22.67877365809395
 20
-14.32704503258582
 30
0.0
 10
22.67877365809395
 20
-14.32704503258582
 30
0.0
 10
22.67877365809395
 20
-14.32704503258582
 30
0.0
 10
22.78702685214091
 20
-14.26454502184493
 30
0.0
 10
22.78702685214091
 20
-14.26454502184493
 30
0.0
 10
22.78702685214091
 20
-14.26454502184493
 30
0.0
 10
22.91202687362335
 20
-14.4810514099391
 30
0.0
 10
22.91202687362335
 20
-14.4810514099391
 30
0.0
 10
22.91202687362335
 20
-14.4810514099391
 30
0.0
 10
22.80377367957588
 20
-14.54355142068025
 30
0.0
 10
22.80377367957588
 20
-14.54355142068025
 30
0.0
 10
22.80377367957588
 20
-14.54355142068025
 30
0.0
 10
22.95877368952643
 20
-14.81201931301396
 30
0.0
 10
22.95877368952643
 20
-14.81201931301396
 30
0.0
 10
22.95877368952643
 20
-14.81201931301396
 30
0.0
 10
24.12357817681512
 20
-14.1395191285389
 30
0.0
 10
24.12357817681512
 20
-14.1395191285389
 30
0.0
 10
24.12357817681512
 20
-14.1395191285389
 30
0.0
 10
24.32357817619678
 20
-14.48592928888654
 30
0.0
 10
24.32357817619678
 20
-14.48592928888654
 30
0.0
 10
24.32357817619678
 20
-14.48592928888654
 30
0.0
 10
27.21973675955006
 20
-12.81383135067087
 30
0.0
 10
27.21973675955006
 20
-12.81383135067087
 30
0.0
 10
27.21973675955006
 20
-12.81383135067087
 30
0.0
 10
27.21762831750171
 20
-12.73357300027923
 30
0.0
 10
27.21762831750171
 20
-12.73357300027923
 30
0.0
 10
27.21762831750171
 20
-12.73357300027923
 30
0.0
 10
24.37734035317287
 20
-11.09373202634348
 30
0.0
 10
24.37734035317287
 20
-11.09373202634348
 30
0.0
 10
24.37734035317287
 20
-11.09373202634348
 30
0.0
 10
24.17734035385332
 20
-11.44014218672744
 30
0.0
 10
24.17734035385332
 20
-11.44014218672744
 30
0.0
 10
24.17734035385332
 20
-11.44014218672744
 30
0.0
 10
23.01253623938613
 20
-10.76764221777919
 30
0.0
 10
23.01253623938613
 20
-10.76764221777919
 30
0.0
 10
23.01253623938613
 20
-10.76764221777919
 30
0.0
 10
22.85753622948383
 20
-11.03611011014133
 30
0.0
 10
22.85753622948383
 20
-11.03611011014133
 30
0.0
 10
22.85753622948383
 20
-11.03611011014133
 30
0.0
 10
22.96578942354182
 20
-11.09861012086279
 30
0.0
 10
22.96578942354182
 20
-11.09861012086279
 30
0.0
 10
22.96578942354182
 20
-11.09861012086279
 30
0.0
 10
22.84078940209866
 20
-11.31511650897929
 30
0.0
 10
22.84078940209866
 20
-11.31511650897929
 30
0.0
 10
22.84078940209866
 20
-11.31511650897929
 30
0.0
 10
22.73253620804054
 20
-11.25261649825777
 30
0.0
 10
22.73253620804054
 20
-11.25261649825777
 30
0.0
 10
22.73253620804054
 20
-11.25261649825777
 30
0.0
 10
22.60753624042668
 20
-11.46912279313899
 30
0.0
 10
22.60753624042668
 20
-11.46912279313899
 30
0.0
 10
22.60753624042668
 20
-11.46912279313899
 30
0.0
 10
22.33906818490287
 20
-11.31412268903476
 30
0.0
 10
22.33906818490287
 20
-11.31412268903476
 30
0.0
 10
22.33906818490287
 20
-11.31412268903476
 30
0.0
 10
22.46406815251647
 20
-11.09761639415353
 30
0.0
 10
22.46406815251647
 20
-11.09761639415353
 30
0.0
 10
22.46406815251647
 20
-11.09761639415353
 30
0.0
 10
22.35581495845835
 20
-11.03511638343214
 30
0.0
 10
22.35581495845835
 20
-11.03511638343214
 30
0.0
 10
22.35581495845835
 20
-11.03511638343214
 30
0.0
 10
22.48081497990099
 20
-10.81860999531513
 30
0.0
 10
22.48081497990099
 20
-10.81860999531513
 30
0.0
 10
22.48081497990099
 20
-10.81860999531513
 30
0.0
 10
22.5890681739595
 20
-10.88111000603678
 30
0.0
 10
22.5890681739595
 20
-10.88111000603678
 30
0.0
 10
22.5890681739595
 20
-10.88111000603678
 30
0.0
 10
22.74406818386193
 20
-10.61264211367534
 30
0.0
 10
22.74406818386193
 20
-10.61264211367534
 30
0.0
 10
22.74406818386193
 20
-10.61264211367534
 30
0.0
 10
21.57926406939501
 20
-9.940142144727412
 30
0.0
 10
21.57926406939501
 20
-9.940142144727412
 30
0.0
 10
21.57926406939501
 20
-9.940142144727412
 30
0.0
 10
21.77926406871469
 20
-9.593731984343838
 30
0.0
 10
21.77926406871469
 20
-9.593731984343838
 30
0.0
 10
21.77926406871469
 20
-9.593731984343838
 30
0.0
 10
20.04721296378152
 20
-8.593731812798719
 30
0.0
 10
20.04721296378152
 20
-8.593731812798719
 30
0.0
 10
20.04721296378152
 20
-8.593731812798719
 30
0.0
 10
19.84721296446172
 20
-8.940141973181973
 30
0.0
 10
19.84721296446172
 20
-8.940141973181973
 30
0.0
 10
19.84721296446172
 20
-8.940141973181973
 30
0.0
 10
18.68240922293667
 20
-8.267642219552693
 30
0.0
 10
18.68240922293667
 20
-8.267642219552693
 30
0.0
 10
18.68240922293667
 20
-8.267642219552693
 30
0.0
 10
18.52740921303436
 20
-8.536110111914388
 30
0.0
 10
18.52740921303436
 20
-8.536110111914388
 30
0.0
 10
18.52740921303436
 20
-8.536110111914388
 30
0.0
 10
18.63566240709261
 20
-8.598610122635906
 30
0.0
 10
18.63566240709261
 20
-8.598610122635906
 30
0.0
 10
18.63566240709261
 20
-8.598610122635906
 30
0.0
 10
18.51066238564919
 20
-8.815116510752407
 30
0.0
 10
18.51066238564919
 20
-8.815116510752407
 30
0.0
 10
18.51066238564919
 20
-8.815116510752407
 30
0.0
 10
18.40240919159107
 20
-8.75261650003089
 30
0.0
 10
18.40240919159107
 20
-8.75261650003089
 30
0.0
 10
18.40240919159107
 20
-8.75261650003089
 30
0.0
 10
18.27740922397773
 20
-8.969122794912497
 30
0.0
 10
18.27740922397773
 20
-8.969122794912497
 30
0.0
 10
18.27740922397773
 20
-8.969122794912497
 30
0.0
 10
18.00894154139566
 20
-8.814122906126524
 30
0.0
 10
18.00894154139566
 20
-8.814122906126524
 30
0.0
 10
18.00894154139566
 20
-8.814122906126524
 30
0.0
 10
18.13394150900926
 20
-8.597616611245428
 30
0.0
 10
18.13394150900926
 20
-8.597616611245428
 30
0.0
 10
18.13394150900926
 20
-8.597616611245428
 30
0.0
 10
18.02568831495076
 20
-8.535116600523525
 30
0.0
 10
18.02568831495076
 20
-8.535116600523525
 30
0.0
 10
18.02568831495076
 20
-8.535116600523525
 30
0.0
 10
18.15068833639405
 20
-8.318610212407025
 30
0.0
 10
18.15068833639405
 20
-8.318610212407025
 30
0.0
 10
18.15068833639405
 20
-8.318610212407025
 30
0.0
 10
18.25894153045268
 20
-8.381110223128543
 30
0.0
 10
18.25894153045268
 20
-8.381110223128543
 30
0.0
 10
18.25894153045268
 20
-8.381110223128543
 30
0.0
 10
18.4139415403546
 20
-8.112642330766848
 30
0.0
 10
18.4139415403546
 20
-8.112642330766848
 30
0.0
 10
18.4139415403546
 20
-8.112642330766848
 30
0.0
 10
17.24913705294554
 20
-7.44014214650098
 30
0.0
 10
17.24913705294554
 20
-7.44014214650098
 30
0.0
 10
17.24913705294554
 20
-7.44014214650098
 30
0.0
 10
17.4491370522656
 20
-7.09373198611747
 30
0.0
 10
17.4491370522656
 20
-7.09373198611747
 30
0.0
 10
17.4491370522656
 20
-7.09373198611747
 30
0.0
 10
14.55297846857902
 20
-5.421634048479461
 30
0.0
 10
14.55297846857902
 20
-5.421634048479461
 30
0.0
 10
14.55297846857902
 20
-5.421634048479461
 30
0.0
 10
14.45870006610123
 20
-5.476065669116561
 30
0.0
 10
14.45870006610123
 20
-5.476065669116561
 30
0.0
 10
14.45870006610123
 20
-5.476065669116561
 30
0.0
 10
14.45870010647424
 20
-8.755747687256733
 30
0.0
 10
14.45870010647424
 20
-8.755747687256733
 30
0.0
 10
14.45870010647424
 20
-8.755747687256733
 30
0.0
 10
14.85870010515556
 20
-8.755747687256155
 30
0.0
 10
14.85870010515556
 20
-8.755747687256155
 30
0.0
 10
14.85870010515556
 20
-8.755747687256155
 30
0.0
 10
14.85870010515582
 20
-10.10074762529177
 30
0.0
 10
14.85870010515582
 20
-10.10074762529177
 30
0.0
 10
14.85870010515582
 20
-10.10074762529177
 30
0.0
 10
15.16870012499251
 20
-10.10074762529132
 30
0.0
 10
15.16870012499251
 20
-10.10074762529132
 30
0.0
 10
15.16870012499251
 20
-10.10074762529132
 30
0.0
 10
15.16870012499251
 20
-9.975747603835323
 30
0.0
 10
15.16870012499251
 20
-9.975747603835323
 30
0.0
 10
15.16870012499251
 20
-9.975747603835323
 30
0.0
 10
15.41870016790476
 20
-9.975747603835579
 30
0.0
 10
15.41870016790476
 20
-9.975747603835579
 30
0.0
 10
15.41870016790476
 20
-9.975747603835579
 30
0.0
 10
15.41870016790476
 20
-10.10074762529158
 30
0.0
 10
15.41870016790476
 20
-10.10074762529158
 30
0.0
 10
15.41870016790476
 20
-10.10074762529158
 30
0.0
 10
15.66870010315801
 20
-10.10074762529171
 30
0.0
 10
15.66870010315801
 20
-10.10074762529171
 30
0.0
 10
15.66870010315801
 20
-10.10074762529171
 30
0.0
 10
15.66870010315776
 20
-10.41074783353226
 30
0.0
 10
15.66870010315776
 20
-10.41074783353226
 30
0.0
 10
15.66870010315776
 20
-10.41074783353226
 30
0.0
 10
15.41870016790489
 20
-10.41074783353201
 30
0.0
 10
15.41870016790489
 20
-10.41074783353201
 30
0.0
 10
15.41870016790489
 20
-10.41074783353201
 30
0.0
 10
15.41870016790476
 20
-10.535747854988
 30
0.0
 10
15.41870016790476
 20
-10.535747854988
 30
0.0
 10
15.41870016790476
 20
-10.535747854988
 30
0.0
 10
15.16870012499251
 20
-10.53574785498839
 30
0.0
 10
15.16870012499251
 20
-10.53574785498839
 30
0.0
 10
15.16870012499251
 20
-10.53574785498839
 30
0.0
 10
15.16870012499264
 20
-10.41074783353175
 30
0.0
 10
15.16870012499264
 20
-10.41074783353175
 30
0.0
 10
15.16870012499264
 20
-10.41074783353175
 30
0.0
 10
14.85870010515556
 20
-10.41074783353194
 30
0.0
 10
14.85870010515556
 20
-10.41074783353194
 30
0.0
 10
14.85870010515556
 20
-10.41074783353194
 30
0.0
 10
14.85870010515569
 20
-11.75574777156717
 30
0.0
 10
14.85870010515569
 20
-11.75574777156717
 30
0.0
 10
14.85870010515569
 20
-11.75574777156717
 30
0.0
 10
14.45870010647437
 20
-11.75574777156711
 30
0.0
 10
14.45870010647437
 20
-11.75574777156711
 30
0.0
 10
14.45870010647437
 20
-11.75574777156711
 30
0.0
 10
14.45870010647462
 20
-13.75574811486506
 30
0.0
 10
14.45870010647462
 20
-13.75574811486506
 30
0.0
 10
14.45870010647462
 20
-13.75574811486506
 30
0.0
 10
14.85870010515556
 20
-13.75574811486481
 30
0.0
 10
14.85870010515556
 20
-13.75574811486481
 30
0.0
 10
14.85870010515556
 20
-13.75574811486481
 30
0.0
 10
14.85870010515582
 20
-15.10074762226313
 30
0.0
 10
14.85870010515582
 20
-15.10074762226313
 30
0.0
 10
14.85870010515582
 20
-15.10074762226313
 30
0.0
 10
15.16870012499251
 20
-15.10074762226325
 30
0.0
 10
15.16870012499251
 20
-15.10074762226325
 30
0.0
 10
15.16870012499251
 20
-15.10074762226325
 30
0.0
 10
15.16870012499264
 20
-14.975747600807
 30
0.0
 10
15.16870012499264
 20
-14.975747600807
 30
0.0
 10
15.16870012499264
 20
-14.975747600807
 30
0.0
 10
15.41870016790489
 20
-14.97574760080726
 30
0.0
 10
15.41870016790489
 20
-14.97574760080726
 30
0.0
 10
15.41870016790489
 20
-14.97574760080726
 30
0.0
 10
15.41870016790476
 20
-15.10074762226351
 30
0.0
 10
15.41870016790476
 20
-15.10074762226351
 30
0.0
 10
15.41870016790476
 20
-15.10074762226351
 30
0.0
 10
15.66870010315801
 20
-15.100747622263
 30
0.0
 10
15.66870010315801
 20
-15.100747622263
 30
0.0
 10
15.66870010315801
 20
-15.100747622263
 30
0.0
 10
15.66870010315776
 20
-15.41074739986742
 30
0.0
 10
15.66870010315776
 20
-15.41074739986742
 30
0.0
 10
15.66870010315776
 20
-15.41074739986742
 30
0.0
 10
15.41870016790476
 20
-15.41074739986716
 30
0.0
 10
15.41870016790476
 20
-15.41074739986716
 30
0.0
 10
15.41870016790476
 20
-15.41074739986716
 30
0.0
 10
15.41870016790476
 20
-15.53574742132341
 30
0.0
 10
15.41870016790476
 20
-15.53574742132341
 30
0.0
 10
15.41870016790476
 20
-15.53574742132341
 30
0.0
 10
15.16870012499251
 20
-15.53574742132354
 30
0.0
 10
15.16870012499251
 20
-15.53574742132354
 30
0.0
 10
15.16870012499251
 20
-15.53574742132354
 30
0.0
 10
15.16870012499251
 20
-15.4107473998669
 30
0.0
 10
15.16870012499251
 20
-15.4107473998669
 30
0.0
 10
15.16870012499251
 20
-15.4107473998669
 30
0.0
 10
14.85870010515582
 20
-15.41074739986742
 30
0.0
 10
14.85870010515582
 20
-15.41074739986742
 30
0.0
 10
14.85870010515582
 20
-15.41074739986742
 30
0.0
 10
14.85870010515582
 20
-16.75574776853866
 30
0.0
 10
14.85870010515582
 20
-16.75574776853866
 30
0.0
  0
POLYLINE
  5
14D
330
1F
100
AcDbEntity
  8
Layer 1
 62
   142
370
    35
100
AcDb2dPolyline
 66
     1
 10
0.0
 20
0.0
 30
0.0
  0
VERTEX
  5
14E
330
14D
100
AcDbEntity
  8
Layer 1
 62
   142
370
    35
100
AcDbVertex
100
AcDb2dVertex
 10
31.48389254805127
 20
-38.04664940542985
 30
0.0
  0
VERTEX
  5
14F
330
14D
100
AcDbEntity
  8
Layer 1
 62
   142
370
    35
100
AcDbVertex
100
AcDb2dVertex
 10
-18.51610743944872
 20
-38.04664940542985
 30
0.0
  0
VERTEX
  5
150
330
14D
100
AcDbEntity
  8
Layer 1
 62
   142
370
    35
100
AcDbVertex
100
AcDb2dVertex
 10
-18.51610743944872
 20
11.95335058207014
 30
0.0
  0
VERTEX
  5
151
330
14D
100
AcDbEntity
  8
Layer 1
 62
   142
370
    35
100
AcDbVertex
100
AcDb2dVertex
 10
31.48389254805127
 20
11.95335058207014
 30
0.0
  0
VERTEX
  5
152
330
14D
100
AcDbEntity
  8
Layer 1
 62
   142
370
    35
100
AcDbVertex
100
AcDb2dVertex
 10
31.48389254805127
 20
-38.04664940542985
 30
0.0
  0
SEQEND
  5
153
330
14D
100
AcDbEntity
  8
Layer 1
 62
   142
370
    35
  0
ENDSEC
  0
SECTION
  2
OBJECTS
  0
DICTIONARY
  5
C
330
0
100
AcDbDictionary
281
     1
  3
ACAD_GROUP
350
D
  3
ACAD_LAYOUT
350
1A
  3
ACAD_MATERIAL
350
3B
  3
ACAD_MLEADERSTYLE
350
156
  3
ACAD_MLINESTYLE
350
17
  3
ACAD_PLOTSETTINGS
350
19
  3
ACAD_PLOTSTYLENAME
350
E
  3
ACAD_VISUALSTYLE
350
2A
  3
AcDbVariableDictionary
350
154
  0
DICTIONARY
  5
D
102
{ACAD_REACTORS
330
C
102
}
330
C
100
AcDbDictionary
281
     1
  0
DICTIONARY
  5
1A
102
{ACAD_REACTORS
330
C
102
}
330
C
100
AcDbDictionary
281
     1
  3
Layout1
350
1E
  3
Layout2
350
26
  3
Model
350
22
  0
DICTIONARY
  5
3B
102
{ACAD_REACTORS
330
C
102
}
330
C
100
AcDbDictionary
281
     1
  3
ByBlock
350
3D
  3
ByLayer
350
3C
  3
Global
350
3E
  0
DICTIONARY
  5
156
102
{ACAD_REACTORS
330
C
102
}
330
C
100
AcDbDictionary
281
     1
  0
DICTIONARY
  5
17
102
{ACAD_REACTORS
330
C
102
}
330
C
100
AcDbDictionary
281
     1
  3
Standard
350
18
  0
DICTIONARY
  5
19
102
{ACAD_REACTORS
330
C
102
}
330
C
100
AcDbDictionary
281
     1
  0
ACDBDICTIONARYWDFLT
  5
E
102
{ACAD_REACTORS
330
C
102
}
330
C
100
AcDbDictionary
281
     1
  3
Normal
350
F
100
AcDbDictionaryWithDefault
340
F
  0
DICTIONARY
  5
2A
102
{ACAD_REACTORS
330
C
102
}
330
C
100
AcDbDictionary
281
     1
  3
2dWireframe
350
2F
  3
3D Hidden
350
31
  3
3dWireframe
350
30
  3
Basic
350
32
  3
Brighten
350
36
  3
ColorChange
350
3A
  3
Conceptual
350
34
  3
Dim
350
35
  3
Facepattern
350
39
  3
Flat
350
2B
  3
FlatWithEdges
350
2C
  3
Gouraud
350
2D
  3
GouraudWithEdges
350
2E
  3
Linepattern
350
38
  3
Realistic
350
33
  3
Thicken
350
37
  0
DICTIONARY
  5
154
102
{ACAD_REACTORS
330
C
102
}
330
C
100
AcDbDictionary
281
     1
  3
DIMASSOC
350
157
  3
HIDETEXT
350
158
  0
LAYOUT
  5
1E
102
{ACAD_REACTORS
330
1A
102
}
330
1A
100
AcDbPlotSettings
  1

  2
none_device
  4

  6

 40
0.0
 41
0.0
 42
0.0
 43
0.0
 44
0.0
 45
0.0
 46
0.0
 47
0.0
 48
0.0
 49
0.0
140
0.0
141
0.0
142
1.0
143
1.0
 70
   688
 72
     0
 73
     0
 74
     5
  7

 75
    16
147
1.0
148
0.0
149
0.0
100
AcDbLayout
  1
Layout1
 70
     1
 71
     1
 10
0.0
 20
0.0
 11
12.0
 21
9.0
 12
0.0
 22
0.0
 32
0.0
 14
1.000000000000000E+20
 24
1.000000000000000E+20
 34
1.000000000000000E+20
 15
-1.000000000000000E+20
 25
-1.000000000000000E+20
 35
-1.000000000000000E+20
146
0.0
 13
0.0
 23
0.0
 33
0.0
 16
1.0
 26
0.0
 36
0.0
 17
0.0
 27
1.0
 37
0.0
 76
     0
330
1B
  0
LAYOUT
  5
26
102
{ACAD_REACTORS
330
1A
102
}
330
1A
100
AcDbPlotSettings
  1

  2
none_device
  4

  6

 40
0.0
 41
0.0
 42
0.0
 43
0.0
 44
0.0
 45
0.0
 46
0.0
 47
0.0
 48
0.0
 49
0.0
140
0.0
141
0.0
142
1.0
143
1.0
 70
   688
 72
     0
 73
     0
 74
     5
  7

 75
    16
147
1.0
148
0.0
149
0.0
100
AcDbLayout
  1
Layout2
 70
     1
 71
     2
 10
0.0
 20
0.0
 11
0.0
 21
0.0
 12
0.0
 22
0.0
 32
0.0
 14
0.0
 24
0.0
 34
0.0
 15
0.0
 25
0.0
 35
0.0
146
0.0
 13
0.0
 23
0.0
 33
0.0
 16
1.0
 26
0.0
 36
0.0
 17
0.0
 27
1.0
 37
0.0
 76
     0
330
23
  0
LAYOUT
  5
22
102
{ACAD_REACTORS
330
1A
102
}
330
1A
100
AcDbPlotSettings
  1

  2
none_device
  4

  6

 40
0.0
 41
0.0
 42
0.0
 43
0.0
 44
0.0
 45
0.0
 46
0.0
 47
0.0
 48
0.0
 49
0.0
140
0.0
141
0.0
142
1.0
143
1.0
 70
  1712
 72
     0
 73
     0
 74
     0
  7

 75
     0
147
1.0
148
0.0
149
0.0
100
AcDbLayout
  1
Model
 70
     1
 71
     0
 10
0.0
 20
0.0
 11
12.0
 21
9.0
 12
0.0
 22
0.0
 32
0.0
 14
1.000000000000000E+20
 24
1.000000000000000E+20
 34
1.000000000000000E+20
 15
-1.000000000000000E+20
 25
-1.000000000000000E+20
 35
-1.000000000000000E+20
146
0.0
 13
0.0
 23
0.0
 33
0.0
 16
1.0
 26
0.0
 36
0.0
 17
0.0
 27
1.0
 37
0.0
 76
     0
330
1F
331
29
  0
MATERIAL
  5
3D
102
{ACAD_REACTORS
330
3B
102
}
102
{ACAD_XDICTIONARY
360
17B
102
}
330
3B
100
AcDbMaterial
  1
ByBlock
  0
MATERIAL
  5
3C
102
{ACAD_REACTORS
330
3B
102
}
102
{ACAD_XDICTIONARY
360
179
102
}
330
3B
100
AcDbMaterial
  1
ByLayer
  0
MATERIAL
  5
3E
102
{ACAD_REACTORS
330
3B
102
}
102
{ACAD_XDICTIONARY
360
17D
102
}
330
3B
100
AcDbMaterial
  1
Global
  0
MLINESTYLE
  5
18
102
{ACAD_REACTORS
330
17
102
}
330
17
100
AcDbMlineStyle
  2
Standard
 70
     0
  3

 62
   256
 51
90.0
 52
90.0
 71
     2
 49
0.5
 62
   256
  6
BYLAYER
 49
-0.5
 62
   256
  6
BYLAYER
  0
ACDBPLACEHOLDER
  5
F
102
{ACAD_REACTORS
330
E
102
}
330
E
  0
VISUALSTYLE
  5
2F
102
{ACAD_REACTORS
330
2A
102
}
102
{ACAD_XDICTIONARY
360
161
102
}
330
2A
100
AcDbVisualStyle
  2
2dWireframe
 70
     4
 71
     0
 72
     2
 73
     0
 90
        0
 40
-0.6
 41
-30.0
 62
     5
 63
     7
 74
     1
 91
        4
 64
     7
 65
   257
 75
     1
175
     1
 42
1.0
 92
        0
 66
   257
 43
1.0
 76
     1
 77
     6
 78
     2
 67
     7
 79
     5
170
     0
171
     0
290
     0
174
     0
 93
        1
 44
0.0
173
     0
291
     0
 45
0.0
1001
ACAD
1000
AcDbSavedByObjectVersion
1070
     0
  0
VISUALSTYLE
  5
31
102
{ACAD_REACTORS
330
2A
102
}
102
{ACAD_XDICTIONARY
360
165
102
}
330
2A
100
AcDbVisualStyle
  2
3D Hidden
 70
     6
 71
     1
 72
     2
 73
     2
 90
        0
 40
-0.6
 41
-30.0
 62
     5
 63
     7
 74
     2
 91
        2
 64
     7
 65
   257
 75
     2
175
     1
 42
40.0
 92
        0
 66
   257
 43
1.0
 76
     1
 77
     6
 78
     2
 67
     7
 79
     3
170
     0
171
     0
290
     0
174
     0
 93
        1
 44
0.0
173
     0
291
     0
 45
0.0
1001
ACAD
1000
AcDbSavedByObjectVersion
1070
     0
  0
VISUALSTYLE
  5
30
102
{ACAD_REACTORS
330
2A
102
}
102
{ACAD_XDICTIONARY
360
163
102
}
330
2A
100
AcDbVisualStyle
  2
3dWireframe
 70
     5
 71
     0
 72
     2
 73
     0
 90
        0
 40
-0.6
 41
-30.0
 62
     5
 63
     7
 74
     1
 91
        4
 64
     7
 65
   257
 75
     1
175
     1
 42
1.0
 92
        0
 66
   257
 43
1.0
 76
     1
 77
     6
 78
     2
 67
     7
 79
     5
170
     0
171
     0
290
     0
174
     0
 93
        1
 44
0.0
173
     0
291
     0
 45
0.0
1001
ACAD
1000
AcDbSavedByObjectVersion
1070
     0
  0
VISUALSTYLE
  5
32
102
{ACAD_REACTORS
330
2A
102
}
102
{ACAD_XDICTIONARY
360
167
102
}
330
2A
100
AcDbVisualStyle
  2
Basic
 70
     7
 71
     1
 72
     0
 73
     1
 90
        0
 40
-0.6
 41
-30.0
 62
     5
 63
     7
 74
     0
 91
        4
 64
     7
 65
   257
 75
     1
175
     1
 42
1.0
 92
        8
 66
     7
 43
1.0
 76
     1
 77
     6
 78
     2
 67
     7
 79
     5
170
     0
171
     0
290
     0
174
     0
 93
        1
 44
0.0
173
     0
291
     1
 45
0.0
1001
ACAD
1000
AcDbSavedByObjectVersion
1070
     0
  0
VISUALSTYLE
  5
36
102
{ACAD_REACTORS
330
2A
102
}
102
{ACAD_XDICTIONARY
360
16F
102
}
330
2A
100
AcDbVisualStyle
  2
Brighten
 70
    12
 71
     2
 72
     2
 73
     0
 90
        0
 40
-0.6
 41
-30.0
 62
     5
 63
     7
 74
     1
 91
        4
 64
     7
 65
   257
 75
     1
175
     1
 42
1.0
 92
        8
 66
     7
 43
1.0
 76
     1
 77
     6
 78
     2
 67
     7
 79
     5
170
     0
171
     0
290
     0
174
     0
 93
        1
 44
50.0
173
     0
291
     1
 45
0.0
1001
ACAD
1000
AcDbSavedByObjectVersion
1070
     0
  0
VISUALSTYLE
  5
3A
102
{ACAD_REACTORS
330
2A
102
}
102
{ACAD_XDICTIONARY
360
177
102
}
330
2A
100
AcDbVisualStyle
  2
ColorChange
 70
    16
 71
     2
 72
     2
 73
     3
 90
        0
 40
-0.6
 41
-30.0
 62
     5
 63
     8
 74
     1
 91
        4
 64
     7
 65
   257
 75
     1
175
     1
 42
1.0
 92
        8
 66
     8
 43
1.0
 76
     1
 77
     6
 78
     2
 67
     7
 79
     5
170
     0
171
     0
290
     0
174
     0
 93
        1
 44
0.0
173
     0
291
     1
 45
0.0
1001
ACAD
1000
AcDbSavedByObjectVersion
1070
     0
  0
VISUALSTYLE
  5
34
102
{ACAD_REACTORS
330
2A
102
}
102
{ACAD_XDICTIONARY
360
16B
102
}
330
2A
100
AcDbVisualStyle
  2
Conceptual
 70
     9
 71
     3
 72
     2
 73
     0
 90
        0
 40
-0.6
 41
-30.0
 62
     5
 63
     7
 74
     2
 91
        2
 64
     7
 65
   257
 75
     1
175
     1
 42
40.0
 92
        8
 66
     7
 43
1.0
 76
     1
 77
     6
 78
     2
 67
     7
 79
     3
170
     0
171
     0
290
     0
174
     0
 93
        1
 44
0.0
173
     0
291
     0
 45
0.0
1001
ACAD
1000
AcDbSavedByObjectVersion
1070
     0
  0
VISUALSTYLE
  5
35
102
{ACAD_REACTORS
330
2A
102
}
102
{ACAD_XDICTIONARY
360
16D
102
}
330
2A
100
AcDbVisualStyle
  2
Dim
 70
    11
 71
     2
 72
     2
 73
     0
 90
        0
 40
-0.6
 41
-30.0
 62
     5
 63
     7
 74
     1
 91
        4
 64
     7
 65
   257
 75
     1
175
     1
 42
1.0
 92
        8
 66
     7
 43
1.0
 76
     1
 77
     6
 78
     2
 67
     7
 79
     5
170
     0
171
     0
290
     0
174
     0
 93
        1
 44
-50.0
173
     0
291
     1
 45
0.0
1001
ACAD
1000
AcDbSavedByObjectVersion
1070
     0
  0
VISUALSTYLE
  5
39
102
{ACAD_REACTORS
330
2A
102
}
102
{ACAD_XDICTIONARY
360
175
102
}
330
2A
100
AcDbVisualStyle
  2
Facepattern
 70
    15
 71
     2
 72
     2
 73
     0
 90
        0
 40
-0.6
 41
-30.0
 62
     5
 63
     7
 74
     1
 91
        4
 64
     7
 65
   257
 75
     1
175
     1
 42
1.0
 92
        8
 66
     7
 43
1.0
 76
     1
 77
     6
 78
     2
 67
     7
 79
     5
170
     0
171
     0
290
     0
174
     0
 93
        1
 44
0.0
173
     0
291
     1
 45
0.0
1001
ACAD
1000
AcDbSavedByObjectVersion
1070
     0
  0
VISUALSTYLE
  5
2B
102
{ACAD_REACTORS
330
2A
102
}
102
{ACAD_XDICTIONARY
360
159
102
}
330
2A
100
AcDbVisualStyle
  2
Flat
 70
     0
 71
     2
 72
     1
 73
     1
 90
        2
 40
-0.6
 41
30.0
 62
     5
 63
     7
 74
     0
 91
        4
 64
     7
 65
   257
 75
     1
175
     1
 42
1.0
 92
        8
 66
     7
 43
1.0
 76
     1
 77
     6
 78
     2
 67
     7
 79
     5
170
     0
171
     0
290
     0
174
     0
 93
       13
 44
0.0
173
     0
291
     1
 45
0.0
1001
ACAD
1000
AcDbSavedByObjectVersion
1070
     0
  0
VISUALSTYLE
  5
2C
102
{ACAD_REACTORS
330
2A
102
}
102
{ACAD_XDICTIONARY
360
15B
102
}
330
2A
100
AcDbVisualStyle
  2
FlatWithEdges
 70
     1
 71
     2
 72
     1
 73
     1
 90
        2
 40
-0.6
 41
30.0
 62
     5
 63
     7
 74
     1
 91
        4
 64
     7
 65
   257
 75
     1
175
     1
 42
1.0
 92
        0
 66
   257
 43
1.0
 76
     1
 77
     6
 78
     2
 67
     7
 79
     5
170
     0
171
     0
290
     0
174
     0
 93
       13
 44
0.0
173
     0
291
     1
 45
0.0
1001
ACAD
1000
AcDbSavedByObjectVersion
1070
     0
  0
VISUALSTYLE
  5
2D
102
{ACAD_REACTORS
330
2A
102
}
102
{ACAD_XDICTIONARY
360
15D
102
}
330
2A
100
AcDbVisualStyle
  2
Gouraud
 70
     2
 71
     2
 72
     2
 73
     1
 90
        2
 40
-0.6
 41
30.0
 62
     5
 63
     7
 74
     0
 91
        4
 64
     7
 65
   257
 75
     1
175
     1
 42
1.0
 92
        0
 66
     7
 43
1.0
 76
     1
 77
     6
 78
     2
 67
     7
 79
     5
170
     0
171
     0
290
     0
174
     0
 93
       13
 44
0.0
173
     0
291
     1
 45
0.0
1001
ACAD
1000
AcDbSavedByObjectVersion
1070
     0
  0
VISUALSTYLE
  5
2E
102
{ACAD_REACTORS
330
2A
102
}
102
{ACAD_XDICTIONARY
360
15F
102
}
330
2A
100
AcDbVisualStyle
  2
GouraudWithEdges
 70
     3
 71
     2
 72
     2
 73
     1
 90
        2
 40
-0.6
 41
30.0
 62
     5
 63
     7
 74
     1
 91
        4
 64
     7
 65
   257
 75
     1
175
     1
 42
1.0
 92
        0
 66
   257
 43
1.0
 76
     1
 77
     6
 78
     2
 67
     7
 79
     5
170
     0
171
     0
290
     0
174
     0
 93
       13
 44
0.0
173
     0
291
     1
 45
0.0
1001
ACAD
1000
AcDbSavedByObjectVersion
1070
     0
  0
VISUALSTYLE
  5
38
102
{ACAD_REACTORS
330
2A
102
}
102
{ACAD_XDICTIONARY
360
173
102
}
330
2A
100
AcDbVisualStyle
  2
Linepattern
 70
    14
 71
     2
 72
     2
 73
     0
 90
        0
 40
-0.6
 41
-30.0
 62
     5
 63
     7
 74
     1
 91
        4
 64
     7
 65
   257
 75
     7
175
     7
 42
1.0
 92
        8
 66
     7
 43
1.0
 76
     1
 77
     6
 78
     2
 67
     7
 79
     5
170
     0
171
     0
290
     0
174
     0
 93
        1
 44
0.0
173
     0
291
     1
 45
0.0
1001
ACAD
1000
AcDbSavedByObjectVersion
1070
     0
  0
VISUALSTYLE
  5
33
102
{ACAD_REACTORS
330
2A
102
}
102
{ACAD_XDICTIONARY
360
169
102
}
330
2A
100
AcDbVisualStyle
  2
Realistic
 70
     8
 71
     2
 72
     2
 73
     0
 90
        0
 40
-0.6
 41
-30.0
 62
     5
 63
     7
 74
     1
 91
        0
 64
     7
 65
   257
 75
     1
175
     1
 42
1.0
 92
        8
 66
     8
 43
1.0
 76
     1
 77
     6
 78
     2
 67
     7
 79
     5
170
     0
171
     0
290
     0
174
     0
 93
       13
 44
0.0
173
     0
291
     0
 45
0.0
1001
ACAD
1000
AcDbSavedByObjectVersion
1070
     0
  0
VISUALSTYLE
  5
37
102
{ACAD_REACTORS
330
2A
102
}
102
{ACAD_XDICTIONARY
360
171
102
}
330
2A
100
AcDbVisualStyle
  2
Thicken
 70
    13
 71
     2
 72
     2
 73
     0
 90
        0
 40
-0.6
 41
-30.0
 62
     5
 63
     7
 74
     1
 91
        4
 64
     7
 65
   257
 75
     1
175
     1
 42
1.0
 92
       12
 66
     7
 43
1.0
 76
     1
 77
     6
 78
     2
 67
     7
 79
     5
170
     0
171
     0
290
     0
174
     0
 93
        1
 44
0.0
173
     0
291
     1
 45
0.0
1001
ACAD
1000
AcDbSavedByObjectVersion
1070
     0
  0
DICTIONARYVAR
  5
157
102
{ACAD_REACTORS
330
154
102
}
330
154
100
DictionaryVariables
280
     0
  1
2
  0
DICTIONARYVAR
  5
158
102
{ACAD_REACTORS
330
154
102
}
330
154
100
DictionaryVariables
280
     0
  1
1
  0
DICTIONARY
  5
17B
330
3D
100
AcDbDictionary
280
     1
281
     1
  3
ACAD_XREC_ROUNDTRIP
360
17C
  0
DICTIONARY
  5
179
330
3C
100
AcDbDictionary
280
     1
281
     1
  3
ACAD_XREC_ROUNDTRIP
360
17A
  0
DICTIONARY
  5
17D
330
3E
100
AcDbDictionary
280
     1
281
     1
  3
ACAD_XREC_ROUNDTRIP
360
17E
  0
DICTIONARY
  5
161
330
2F
100
AcDbDictionary
280
     1
281
     1
  3
ACAD_XREC_ROUNDTRIP
360
162
  0
DICTIONARY
  5
165
330
31
100
AcDbDictionary
280
     1
281
     1
  3
ACAD_XREC_ROUNDTRIP
360
166
  0
DICTIONARY
  5
163
330
30
100
AcDbDictionary
280
     1
281
     1
  3
ACAD_XREC_ROUNDTRIP
360
164
  0
DICTIONARY
  5
167
330
32
100
AcDbDictionary
280
     1
281
     1
  3
ACAD_XREC_ROUNDTRIP
360
168
  0
DICTIONARY
  5
16F
330
36
100
AcDbDictionary
280
     1
281
     1
  3
ACAD_XREC_ROUNDTRIP
360
170
  0
DICTIONARY
  5
177
330
3A
100
AcDbDictionary
280
     1
281
     1
  3
ACAD_XREC_ROUNDTRIP
360
178
  0
DICTIONARY
  5
16B
330
34
100
AcDbDictionary
280
     1
281
     1
  3
ACAD_XREC_ROUNDTRIP
360
16C
  0
DICTIONARY
  5
16D
330
35
100
AcDbDictionary
280
     1
281
     1
  3
ACAD_XREC_ROUNDTRIP
360
16E
  0
DICTIONARY
  5
175
330
39
100
AcDbDictionary
280
     1
281
     1
  3
ACAD_XREC_ROUNDTRIP
360
176
  0
DICTIONARY
  5
159
330
2B
100
AcDbDictionary
280
     1
281
     1
  3
ACAD_XREC_ROUNDTRIP
360
15A
  0
DICTIONARY
  5
15B
330
2C
100
AcDbDictionary
280
     1
281
     1
  3
ACAD_XREC_ROUNDTRIP
360
15C
  0
DICTIONARY
  5
15D
330
2D
100
AcDbDictionary
280
     1
281
     1
  3
ACAD_XREC_ROUNDTRIP
360
15E
  0
DICTIONARY
  5
15F
330
2E
100
AcDbDictionary
280
     1
281
     1
  3
ACAD_XREC_ROUNDTRIP
360
160
  0
DICTIONARY
  5
173
330
38
100
AcDbDictionary
280
     1
281
     1
  3
ACAD_XREC_ROUNDTRIP
360
174
  0
DICTIONARY
  5
169
330
33
100
AcDbDictionary
280
     1
281
     1
  3
ACAD_XREC_ROUNDTRIP
360
16A
  0
DICTIONARY
  5
171
330
37
100
AcDbDictionary
280
     1
281
     1
  3
ACAD_XREC_ROUNDTRIP
360
172
  0
XRECORD
  5
17C
102
{ACAD_REACTORS
330
17B
102
}
330
17B
100
AcDbXrecord
280
     1
102
MATERIAL
148
0.0
149
0.0
149
0.0
 93
        0
 94
      127
282
     0
 72
     1
 77
     1
171
     1
175
     1
179
     1
273
     0
  0
XRECORD
  5
17A
102
{ACAD_REACTORS
330
179
102
}
330
179
100
AcDbXrecord
280
     1
102
MATERIAL
148
0.0
149
0.0
149
0.0
 93
        0
 94
      127
282
     0
 72
     1
 77
     1
171
     1
175
     1
179
     1
273
     0
  0
XRECORD
  5
17E
102
{ACAD_REACTORS
330
17D
102
}
330
17D
100
AcDbXrecord
280
     1
102
MATERIAL
148
0.0
149
0.0
149
0.0
 93
        0
 94
      127
282
     0
 72
     1
 77
     1
171
     1
175
     1
179
     1
273
     0
  0
XRECORD
  5
162
102
{ACAD_REACTORS
330
161
102
}
330
161
100
AcDbXrecord
280
     1
102
RTVSPropertyOp0
 70
     1
102
RTVSPropertyOp1
 70
     1
102
RTVSPropertyOp2
 70
     1
102
RTVSPropertyOp3
 70
     1
102
RTVSPropertyOp4
 70
     1
102
RTVSPropertyOp5
 70
     1
102
RTVSPropertyOp6
 70
     1
102
RTVSPropertyOp7
 70
     1
102
RTVSPropertyOp8
 70
     1
102
RTVSPropertyOp9
 70
     1
102
RTVSPropertyOp10
 70
     1
102
RTVSPropertyOp11
 70
     1
102
RTVSPropertyOp12
 70
     1
102
RTVSPropertyOp13
 70
     1
102
RTVSPropertyOp14
 70
     1
102
RTVSPropertyOp15
 70
     1
102
RTVSPropertyOp16
 70
     1
102
RTVSPropertyOp17
 70
     1
102
RTVSPropertyOp18
 70
     1
102
RTVSPropertyOp19
 70
     1
102
RTVSPropertyOp20
 70
     1
102
RTVSPropertyOp21
 70
     1
102
RTVSPropertyOp22
 70
     1
102
RTVSPropertyOp23
 70
     1
102
RTVSPropertyOp24
 70
     1
102
RTVSPropertyOp25
 70
     1
102
RTVSPropertyOp26
 70
     1
102
RTVSPropertyOp27
 70
     1
102
RTVSPropertyOp28
 70
     1
102
RTVSPropertyOp29
 70
     1
102
RTVSPropertyOp30
 70
     1
102
RTVSPropertyOp31
 70
     1
102
RTVSPropertyOp32
 70
     1
  0
XRECORD
  5
166
102
{ACAD_REACTORS
330
165
102
}
330
165
100
AcDbXrecord
280
     1
102
RTVSPropertyOp0
 70
     1
102
RTVSPropertyOp1
 70
     1
102
RTVSPropertyOp2
 70
     1
102
RTVSPropertyOp3
 70
     1
102
RTVSPropertyOp4
 70
     1
102
RTVSPropertyOp5
 70
     1
102
RTVSPropertyOp6
 70
     1
102
RTVSPropertyOp7
 70
     1
102
RTVSPropertyOp8
 70
     1
102
RTVSPropertyOp9
 70
     1
102
RTVSPropertyOp10
 70
     1
102
RTVSPropertyOp11
 70
     1
102
RTVSPropertyOp12
 70
     1
102
RTVSPropertyOp13
 70
     1
102
RTVSPropertyOp14
 70
     1
102
RTVSPropertyOp15
 70
     1
102
RTVSPropertyOp16
 70
     1
102
RTVSPropertyOp17
 70
     1
102
RTVSPropertyOp18
 70
     1
102
RTVSPropertyOp19
 70
     1
102
RTVSPropertyOp20
 70
     1
102
RTVSPropertyOp21
 70
     1
102
RTVSPropertyOp22
 70
     1
102
RTVSPropertyOp23
 70
     1
102
RTVSPropertyOp24
 70
     1
102
RTVSPropertyOp25
 70
     1
102
RTVSPropertyOp26
 70
     1
102
RTVSPropertyOp27
 70
     1
102
RTVSPropertyOp28
 70
     1
102
RTVSPropertyOp29
 70
     1
102
RTVSPropertyOp30
 70
     1
102
RTVSPropertyOp31
 70
     1
102
RTVSPropertyOp32
 70
     1
  0
XRECORD
  5
164
102
{ACAD_REACTORS
330
163
102
}
330
163
100
AcDbXrecord
280
     1
102
RTVSPropertyOp0
 70
     1
102
RTVSPropertyOp1
 70
     1
102
RTVSPropertyOp2
 70
     1
102
RTVSPropertyOp3
 70
     1
102
RTVSPropertyOp4
 70
     1
102
RTVSPropertyOp5
 70
     1
102
RTVSPropertyOp6
 70
     1
102
RTVSPropertyOp7
 70
     1
102
RTVSPropertyOp8
 70
     1
102
RTVSPropertyOp9
 70
     1
102
RTVSPropertyOp10
 70
     1
102
RTVSPropertyOp11
 70
     1
102
RTVSPropertyOp12
 70
     1
102
RTVSPropertyOp13
 70
     1
102
RTVSPropertyOp14
 70
     1
102
RTVSPropertyOp15
 70
     1
102
RTVSPropertyOp16
 70
     1
102
RTVSPropertyOp17
 70
     1
102
RTVSPropertyOp18
 70
     1
102
RTVSPropertyOp19
 70
     1
102
RTVSPropertyOp20
 70
     1
102
RTVSPropertyOp21
 70
     1
102
RTVSPropertyOp22
 70
     1
102
RTVSPropertyOp23
 70
     1
102
RTVSPropertyOp24
 70
     1
102
RTVSPropertyOp25
 70
     1
102
RTVSPropertyOp26
 70
     1
102
RTVSPropertyOp27
 70
     1
102
RTVSPropertyOp28
 70
     1
102
RTVSPropertyOp29
 70
     1
102
RTVSPropertyOp30
 70
     1
102
RTVSPropertyOp31
 70
     1
102
RTVSPropertyOp32
 70
     1
  0
XRECORD
  5
168
102
{ACAD_REACTORS
330
167
102
}
330
167
100
AcDbXrecord
280
     1
102
RTVSPropertyOp0
 70
     1
102
RTVSPropertyOp1
 70
     1
102
RTVSPropertyOp2
 70
     1
102
RTVSPropertyOp3
 70
     1
102
RTVSPropertyOp4
 70
     1
102
RTVSPropertyOp5
 70
     1
102
RTVSPropertyOp6
 70
     1
102
RTVSPropertyOp7
 70
     1
102
RTVSPropertyOp8
 70
     1
102
RTVSPropertyOp9
 70
     1
102
RTVSPropertyOp10
 70
     1
102
RTVSPropertyOp11
 70
     1
102
RTVSPropertyOp12
 70
     1
102
RTVSPropertyOp13
 70
     1
102
RTVSPropertyOp14
 70
     1
102
RTVSPropertyOp15
 70
     1
102
RTVSPropertyOp16
 70
     1
102
RTVSPropertyOp17
 70
     1
102
RTVSPropertyOp18
 70
     1
102
RTVSPropertyOp19
 70
     1
102
RTVSPropertyOp20
 70
     1
102
RTVSPropertyOp21
 70
     1
102
RTVSPropertyOp22
 70
     1
102
RTVSPropertyOp23
 70
     1
102
RTVSPropertyOp24
 70
     1
102
RTVSPropertyOp25
 70
     1
102
RTVSPropertyOp26
 70
     1
102
RTVSPropertyOp27
 70
     1
102
RTVSPropertyOp28
 70
     1
102
RTVSPropertyOp29
 70
     1
102
RTVSPropertyOp30
 70
     1
102
RTVSPropertyOp31
 70
     1
102
RTVSPropertyOp32
 70
     1
  0
XRECORD
  5
170
102
{ACAD_REACTORS
330
16F
102
}
330
16F
100
AcDbXrecord
280
     1
102
RTVSPropertyOp0
 70
     1
102
RTVSPropertyOp1
 70
     1
102
RTVSPropertyOp2
 70
     1
102
RTVSPropertyOp3
 70
     1
102
RTVSPropertyOp4
 70
     1
102
RTVSPropertyOp5
 70
     1
102
RTVSPropertyOp6
 70
     1
102
RTVSPropertyOp7
 70
     1
102
RTVSPropertyOp8
 70
     1
102
RTVSPropertyOp9
 70
     1
102
RTVSPropertyOp10
 70
     1
102
RTVSPropertyOp11
 70
     1
102
RTVSPropertyOp12
 70
     1
102
RTVSPropertyOp13
 70
     1
102
RTVSPropertyOp14
 70
     1
102
RTVSPropertyOp15
 70
     1
102
RTVSPropertyOp16
 70
     1
102
RTVSPropertyOp17
 70
     1
102
RTVSPropertyOp18
 70
     1
102
RTVSPropertyOp19
 70
     1
102
RTVSPropertyOp20
 70
     1
102
RTVSPropertyOp21
 70
     1
102
RTVSPropertyOp22
 70
     1
102
RTVSPropertyOp23
 70
     1
102
RTVSPropertyOp24
 70
     1
102
RTVSPropertyOp25
 70
     1
102
RTVSPropertyOp26
 70
     1
102
RTVSPropertyOp27
 70
     1
102
RTVSPropertyOp28
 70
     1
102
RTVSPropertyOp29
 70
     1
102
RTVSPropertyOp30
 70
     1
102
RTVSPropertyOp31
 70
     1
102
RTVSPropertyOp32
 70
     1
  0
XRECORD
  5
178
102
{ACAD_REACTORS
330
177
102
}
330
177
100
AcDbXrecord
280
     1
102
RTVSPropertyOp0
 70
     1
102
RTVSPropertyOp1
 70
     1
102
RTVSPropertyOp2
 70
     1
102
RTVSPropertyOp3
 70
     1
102
RTVSPropertyOp4
 70
     1
102
RTVSPropertyOp5
 70
     1
102
RTVSPropertyOp6
 70
     1
102
RTVSPropertyOp7
 70
     1
102
RTVSPropertyOp8
 70
     1
102
RTVSPropertyOp9
 70
     1
102
RTVSPropertyOp10
 70
     1
102
RTVSPropertyOp11
 70
     1
102
RTVSPropertyOp12
 70
     1
102
RTVSPropertyOp13
 70
     1
102
RTVSPropertyOp14
 70
     1
102
RTVSPropertyOp15
 70
     1
102
RTVSPropertyOp16
 70
     1
102
RTVSPropertyOp17
 70
     1
102
RTVSPropertyOp18
 70
     1
102
RTVSPropertyOp19
 70
     1
102
RTVSPropertyOp20
 70
     1
102
RTVSPropertyOp21
 70
     1
102
RTVSPropertyOp22
 70
     1
102
RTVSPropertyOp23
 70
     1
102
RTVSPropertyOp24
 70
     1
102
RTVSPropertyOp25
 70
     1
102
RTVSPropertyOp26
 70
     1
102
RTVSPropertyOp27
 70
     1
102
RTVSPropertyOp28
 70
     1
102
RTVSPropertyOp29
 70
     1
102
RTVSPropertyOp30
 70
     1
102
RTVSPropertyOp31
 70
     1
102
RTVSPropertyOp32
 70
     1
  0
XRECORD
  5
16C
102
{ACAD_REACTORS
330
16B
102
}
330
16B
100
AcDbXrecord
280
     1
102
RTVSPropertyOp0
 70
     1
102
RTVSPropertyOp1
 70
     1
102
RTVSPropertyOp2
 70
     1
102
RTVSPropertyOp3
 70
     1
102
RTVSPropertyOp4
 70
     1
102
RTVSPropertyOp5
 70
     1
102
RTVSPropertyOp6
 70
     1
102
RTVSPropertyOp7
 70
     1
102
RTVSPropertyOp8
 70
     1
102
RTVSPropertyOp9
 70
     1
102
RTVSPropertyOp10
 70
     1
102
RTVSPropertyOp11
 70
     1
102
RTVSPropertyOp12
 70
     1
102
RTVSPropertyOp13
 70
     1
102
RTVSPropertyOp14
 70
     1
102
RTVSPropertyOp15
 70
     1
102
RTVSPropertyOp16
 70
     1
102
RTVSPropertyOp17
 70
     1
102
RTVSPropertyOp18
 70
     1
102
RTVSPropertyOp19
 70
     1
102
RTVSPropertyOp20
 70
     1
102
RTVSPropertyOp21
 70
     1
102
RTVSPropertyOp22
 70
     1
102
RTVSPropertyOp23
 70
     1
102
RTVSPropertyOp24
 70
     1
102
RTVSPropertyOp25
 70
     1
102
RTVSPropertyOp26
 70
     1
102
RTVSPropertyOp27
 70
     1
102
RTVSPropertyOp28
 70
     1
102
RTVSPropertyOp29
 70
     1
102
RTVSPropertyOp30
 70
     1
102
RTVSPropertyOp31
 70
     1
102
RTVSPropertyOp32
 70
     1
  0
XRECORD
  5
16E
102
{ACAD_REACTORS
330
16D
102
}
330
16D
100
AcDbXrecord
280
     1
102
RTVSPropertyOp0
 70
     1
102
RTVSPropertyOp1
 70
     1
102
RTVSPropertyOp2
 70
     1
102
RTVSPropertyOp3
 70
     1
102
RTVSPropertyOp4
 70
     1
102
RTVSPropertyOp5
 70
     1
102
RTVSPropertyOp6
 70
     1
102
RTVSPropertyOp7
 70
     1
102
RTVSPropertyOp8
 70
     1
102
RTVSPropertyOp9
 70
     1
102
RTVSPropertyOp10
 70
     1
102
RTVSPropertyOp11
 70
     1
102
RTVSPropertyOp12
 70
     1
102
RTVSPropertyOp13
 70
     1
102
RTVSPropertyOp14
 70
     1
102
RTVSPropertyOp15
 70
     1
102
RTVSPropertyOp16
 70
     1
102
RTVSPropertyOp17
 70
     1
102
RTVSPropertyOp18
 70
     1
102
RTVSPropertyOp19
 70
     1
102
RTVSPropertyOp20
 70
     1
102
RTVSPropertyOp21
 70
     1
102
RTVSPropertyOp22
 70
     1
102
RTVSPropertyOp23
 70
     1
102
RTVSPropertyOp24
 70
     1
102
RTVSPropertyOp25
 70
     1
102
RTVSPropertyOp26
 70
     1
102
RTVSPropertyOp27
 70
     1
102
RTVSPropertyOp28
 70
     1
102
RTVSPropertyOp29
 70
     1
102
RTVSPropertyOp30
 70
     1
102
RTVSPropertyOp31
 70
     1
102
RTVSPropertyOp32
 70
     1
  0
XRECORD
  5
176
102
{ACAD_REACTORS
330
175
102
}
330
175
100
AcDbXrecord
280
     1
102
RTVSPropertyOp0
 70
     1
102
RTVSPropertyOp1
 70
     1
102
RTVSPropertyOp2
 70
     1
102
RTVSPropertyOp3
 70
     1
102
RTVSPropertyOp4
 70
     1
102
RTVSPropertyOp5
 70
     1
102
RTVSPropertyOp6
 70
     1
102
RTVSPropertyOp7
 70
     1
102
RTVSPropertyOp8
 70
     1
102
RTVSPropertyOp9
 70
     1
102
RTVSPropertyOp10
 70
     1
102
RTVSPropertyOp11
 70
     1
102
RTVSPropertyOp12
 70
     1
102
RTVSPropertyOp13
 70
     1
102
RTVSPropertyOp14
 70
     1
102
RTVSPropertyOp15
 70
     1
102
RTVSPropertyOp16
 70
     1
102
RTVSPropertyOp17
 70
     1
102
RTVSPropertyOp18
 70
     1
102
RTVSPropertyOp19
 70
     1
102
RTVSPropertyOp20
 70
     1
102
RTVSPropertyOp21
 70
     1
102
RTVSPropertyOp22
 70
     1
102
RTVSPropertyOp23
 70
     1
102
RTVSPropertyOp24
 70
     1
102
RTVSPropertyOp25
 70
     1
102
RTVSPropertyOp26
 70
     1
102
RTVSPropertyOp27
 70
     1
102
RTVSPropertyOp28
 70
     1
102
RTVSPropertyOp29
 70
     1
102
RTVSPropertyOp30
 70
     1
102
RTVSPropertyOp31
 70
     1
102
RTVSPropertyOp32
 70
     1
  0
XRECORD
  5
15A
102
{ACAD_REACTORS
330
159
102
}
330
159
100
AcDbXrecord
280
     1
102
RTVSPropertyOp0
 70
     1
102
RTVSPropertyOp1
 70
     1
102
RTVSPropertyOp2
 70
     1
102
RTVSPropertyOp3
 70
     1
102
RTVSPropertyOp4
 70
     1
102
RTVSPropertyOp5
 70
     1
102
RTVSPropertyOp6
 70
     1
102
RTVSPropertyOp7
 70
     1
102
RTVSPropertyOp8
 70
     1
102
RTVSPropertyOp9
 70
     1
102
RTVSPropertyOp10
 70
     1
102
RTVSPropertyOp11
 70
     1
102
RTVSPropertyOp12
 70
     1
102
RTVSPropertyOp13
 70
     1
102
RTVSPropertyOp14
 70
     1
102
RTVSPropertyOp15
 70
     1
102
RTVSPropertyOp16
 70
     1
102
RTVSPropertyOp17
 70
     1
102
RTVSPropertyOp18
 70
     1
102
RTVSPropertyOp19
 70
     1
102
RTVSPropertyOp20
 70
     1
102
RTVSPropertyOp21
 70
     1
102
RTVSPropertyOp22
 70
     1
102
RTVSPropertyOp23
 70
     1
102
RTVSPropertyOp24
 70
     1
102
RTVSPropertyOp25
 70
     1
102
RTVSPropertyOp26
 70
     1
102
RTVSPropertyOp27
 70
     1
102
RTVSPropertyOp28
 70
     1
102
RTVSPropertyOp29
 70
     1
102
RTVSPropertyOp30
 70
     1
102
RTVSPropertyOp31
 70
     1
102
RTVSPropertyOp32
 70
     1
  0
XRECORD
  5
15C
102
{ACAD_REACTORS
330
15B
102
}
330
15B
100
AcDbXrecord
280
     1
102
RTVSPropertyOp0
 70
     1
102
RTVSPropertyOp1
 70
     1
102
RTVSPropertyOp2
 70
     1
102
RTVSPropertyOp3
 70
     1
102
RTVSPropertyOp4
 70
     1
102
RTVSPropertyOp5
 70
     1
102
RTVSPropertyOp6
 70
     1
102
RTVSPropertyOp7
 70
     1
102
RTVSPropertyOp8
 70
     1
102
RTVSPropertyOp9
 70
     1
102
RTVSPropertyOp10
 70
     1
102
RTVSPropertyOp11
 70
     1
102
RTVSPropertyOp12
 70
     1
102
RTVSPropertyOp13
 70
     1
102
RTVSPropertyOp14
 70
     1
102
RTVSPropertyOp15
 70
     1
102
RTVSPropertyOp16
 70
     1
102
RTVSPropertyOp17
 70
     1
102
RTVSPropertyOp18
 70
     1
102
RTVSPropertyOp19
 70
     1
102
RTVSPropertyOp20
 70
     1
102
RTVSPropertyOp21
 70
     1
102
RTVSPropertyOp22
 70
     1
102
RTVSPropertyOp23
 70
     1
102
RTVSPropertyOp24
 70
     1
102
RTVSPropertyOp25
 70
     1
102
RTVSPropertyOp26
 70
     1
102
RTVSPropertyOp27
 70
     1
102
RTVSPropertyOp28
 70
     1
102
RTVSPropertyOp29
 70
     1
102
RTVSPropertyOp30
 70
     1
102
RTVSPropertyOp31
 70
     1
102
RTVSPropertyOp32
 70
     1
  0
XRECORD
  5
15E
102
{ACAD_REACTORS
330
15D
102
}
330
15D
100
AcDbXrecord
280
     1
102
RTVSPropertyOp0
 70
     1
102
RTVSPropertyOp1
 70
     1
102
RTVSPropertyOp2
 70
     1
102
RTVSPropertyOp3
 70
     1
102
RTVSPropertyOp4
 70
     1
102
RTVSPropertyOp5
 70
     1
102
RTVSPropertyOp6
 70
     1
102
RTVSPropertyOp7
 70
     1
102
RTVSPropertyOp8
 70
     1
102
RTVSPropertyOp9
 70
     1
102
RTVSPropertyOp10
 70
     1
102
RTVSPropertyOp11
 70
     1
102
RTVSPropertyOp12
 70
     1
102
RTVSPropertyOp13
 70
     1
102
RTVSPropertyOp14
 70
     1
102
RTVSPropertyOp15
 70
     1
102
RTVSPropertyOp16
 70
     1
102
RTVSPropertyOp17
 70
     1
102
RTVSPropertyOp18
 70
     1
102
RTVSPropertyOp19
 70
     1
102
RTVSPropertyOp20
 70
     1
102
RTVSPropertyOp21
 70
     1
102
RTVSPropertyOp22
 70
     1
102
RTVSPropertyOp23
 70
     1
102
RTVSPropertyOp24
 70
     1
102
RTVSPropertyOp25
 70
     1
102
RTVSPropertyOp26
 70
     1
102
RTVSPropertyOp27
 70
     1
102
RTVSPropertyOp28
 70
     1
102
RTVSPropertyOp29
 70
     1
102
RTVSPropertyOp30
 70
     1
102
RTVSPropertyOp31
 70
     1
102
RTVSPropertyOp32
 70
     1
  0
XRECORD
  5
160
102
{ACAD_REACTORS
330
15F
102
}
330
15F
100
AcDbXrecord
280
     1
102
RTVSPropertyOp0
 70
     1
102
RTVSPropertyOp1
 70
     1
102
RTVSPropertyOp2
 70
     1
102
RTVSPropertyOp3
 70
     1
102
RTVSPropertyOp4
 70
     1
102
RTVSPropertyOp5
 70
     1
102
RTVSPropertyOp6
 70
     1
102
RTVSPropertyOp7
 70
     1
102
RTVSPropertyOp8
 70
     1
102
RTVSPropertyOp9
 70
     1
102
RTVSPropertyOp10
 70
     1
102
RTVSPropertyOp11
 70
     1
102
RTVSPropertyOp12
 70
     1
102
RTVSPropertyOp13
 70
     1
102
RTVSPropertyOp14
 70
     1
102
RTVSPropertyOp15
 70
     1
102
RTVSPropertyOp16
 70
     1
102
RTVSPropertyOp17
 70
     1
102
RTVSPropertyOp18
 70
     1
102
RTVSPropertyOp19
 70
     1
102
RTVSPropertyOp20
 70
     1
102
RTVSPropertyOp21
 70
     1
102
RTVSPropertyOp22
 70
     1
102
RTVSPropertyOp23
 70
     1
102
RTVSPropertyOp24
 70
     1
102
RTVSPropertyOp25
 70
     1
102
RTVSPropertyOp26
 70
     1
102
RTVSPropertyOp27
 70
     1
102
RTVSPropertyOp28
 70
     1
102
RTVSPropertyOp29
 70
     1
102
RTVSPropertyOp30
 70
     1
102
RTVSPropertyOp31
 70
     1
102
RTVSPropertyOp32
 70
     1
  0
XRECORD
  5
174
102
{ACAD_REACTORS
330
173
102
}
330
173
100
AcDbXrecord
280
     1
102
RTVSPropertyOp0
 70
     1
102
RTVSPropertyOp1
 70
     1
102
RTVSPropertyOp2
 70
     1
102
RTVSPropertyOp3
 70
     1
102
RTVSPropertyOp4
 70
     1
102
RTVSPropertyOp5
 70
     1
102
RTVSPropertyOp6
 70
     1
102
RTVSPropertyOp7
 70
     1
102
RTVSPropertyOp8
 70
     1
102
RTVSPropertyOp9
 70
     1
102
RTVSPropertyOp10
 70
     1
102
RTVSPropertyOp11
 70
     1
102
RTVSPropertyOp12
 70
     1
102
RTVSPropertyOp13
 70
     1
102
RTVSPropertyOp14
 70
     1
102
RTVSPropertyOp15
 70
     1
102
RTVSPropertyOp16
 70
     1
102
RTVSPropertyOp17
 70
     1
102
RTVSPropertyOp18
 70
     1
102
RTVSPropertyOp19
 70
     1
102
RTVSPropertyOp20
 70
     1
102
RTVSPropertyOp21
 70
     1
102
RTVSPropertyOp22
 70
     1
102
RTVSPropertyOp23
 70
     1
102
RTVSPropertyOp24
 70
     1
102
RTVSPropertyOp25
 70
     1
102
RTVSPropertyOp26
 70
     1
102
RTVSPropertyOp27
 70
     1
102
RTVSPropertyOp28
 70
     1
102
RTVSPropertyOp29
 70
     1
102
RTVSPropertyOp30
 70
     1
102
RTVSPropertyOp31
 70
     1
102
RTVSPropertyOp32
 70
     1
  0
XRECORD
  5
16A
102
{ACAD_REACTORS
330
169
102
}
330
169
100
AcDbXrecord
280
     1
102
RTVSPropertyOp0
 70
     1
102
RTVSPropertyOp1
 70
     1
102
RTVSPropertyOp2
 70
     1
102
RTVSPropertyOp3
 70
     1
102
RTVSPropertyOp4
 70
     1
102
RTVSPropertyOp5
 70
     1
102
RTVSPropertyOp6
 70
     1
102
RTVSPropertyOp7
 70
     1
102
RTVSPropertyOp8
 70
     1
102
RTVSPropertyOp9
 70
     1
102
RTVSPropertyOp10
 70
     1
102
RTVSPropertyOp11
 70
     1
102
RTVSPropertyOp12
 70
     1
102
RTVSPropertyOp13
 70
     1
102
RTVSPropertyOp14
 70
     1
102
RTVSPropertyOp15
 70
     1
102
RTVSPropertyOp16
 70
     1
102
RTVSPropertyOp17
 70
     1
102
RTVSPropertyOp18
 70
     1
102
RTVSPropertyOp19
 70
     1
102
RTVSPropertyOp20
 70
     1
102
RTVSPropertyOp21
 70
     1
102
RTVSPropertyOp22
 70
     1
102
RTVSPropertyOp23
 70
     1
102
RTVSPropertyOp24
 70
     1
102
RTVSPropertyOp25
 70
     1
102
RTVSPropertyOp26
 70
     1
102
RTVSPropertyOp27
 70
     1
102
RTVSPropertyOp28
 70
     1
102
RTVSPropertyOp29
 70
     1
102
RTVSPropertyOp30
 70
     1
102
RTVSPropertyOp31
 70
     1
102
RTVSPropertyOp32
 70
     1
  0
XRECORD
  5
172
102
{ACAD_REACTORS
330
171
102
}
330
171
100
AcDbXrecord
280
     1
102
RTVSPropertyOp0
 70
     1
102
RTVSPropertyOp1
 70
     1
102
RTVSPropertyOp2
 70
     1
102
RTVSPropertyOp3
 70
     1
102
RTVSPropertyOp4
 70
     1
102
RTVSPropertyOp5
 70
     1
102
RTVSPropertyOp6
 70
     1
102
RTVSPropertyOp7
 70
     1
102
RTVSPropertyOp8
 70
     1
102
RTVSPropertyOp9
 70
     1
102
RTVSPropertyOp10
 70
     1
102
RTVSPropertyOp11
 70
     1
102
RTVSPropertyOp12
 70
     1
102
RTVSPropertyOp13
 70
     1
102
RTVSPropertyOp14
 70
     1
102
RTVSPropertyOp15
 70
     1
102
RTVSPropertyOp16
 70
     1
102
RTVSPropertyOp17
 70
     1
102
RTVSPropertyOp18
 70
     1
102
RTVSPropertyOp19
 70
     1
102
RTVSPropertyOp20
 70
     1
102
RTVSPropertyOp21
 70
     1
102
RTVSPropertyOp22
 70
     1
102
RTVSPropertyOp23
 70
     1
102
RTVSPropertyOp24
 70
     1
102
RTVSPropertyOp25
 70
     1
102
RTVSPropertyOp26
 70
     1
102
RTVSPropertyOp27
 70
     1
102
RTVSPropertyOp28
 70
     1
102
RTVSPropertyOp29
 70
     1
102
RTVSPropertyOp30
 70
     1
102
RTVSPropertyOp31
 70
     1
102
RTVSPropertyOp32
 70
     1
  0
ENDSEC
  0
EOF
